<svg width="55" height="56" viewBox="0 0 55 56" fill="none" xmlns="http://www.w3.org/2000/svg">
<g id="octicon:law-24">
<path id="Vector" d="M29.2206 6.802V10.8124H33.7467C34.551 10.8124 35.3371 11.0553 36.0017 11.5068L39.8906 14.1514C39.9846 14.2155 40.0969 14.2499 40.2114 14.2499H49.6119C50.0677 14.2499 50.5049 14.431 50.8272 14.7533C51.1495 15.0757 51.3306 15.5128 51.3306 15.9687C51.3306 16.4245 51.1495 16.8617 50.8272 17.184C50.5049 17.5063 50.0677 17.6874 49.6119 17.6874H45.9956L53.7094 35.2874C53.8641 35.6393 53.8963 36.0329 53.8007 36.4052C53.7051 36.7775 53.4874 37.1069 53.1823 37.3408C52.9531 37.5103 52.7171 37.6685 52.4719 37.8128C51.8906 38.1597 51.2856 38.4653 50.6614 38.7272C48.5886 39.5941 46.3633 40.0374 44.1164 40.0312C41.8705 40.0382 39.6459 39.5957 37.5737 38.7295C36.9492 38.4674 36.3442 38.1611 35.7633 37.8128C35.5201 37.6721 35.2852 37.5176 35.0598 37.3499L35.0483 37.3408C34.7432 37.1069 34.5255 36.7775 34.4299 36.4052C34.3343 36.0329 34.3665 35.6393 34.5212 35.2874L42.2396 17.6874H40.2092C39.4048 17.6874 38.6187 17.4445 37.9542 16.993L34.0652 14.3485C33.9707 14.2838 33.8588 14.2494 33.7444 14.2499H29.2206V47.4791H39.5033C39.9592 47.4791 40.3963 47.6602 40.7187 47.9825C41.041 48.3048 41.2221 48.742 41.2221 49.1978C41.2221 49.6537 41.041 50.0908 40.7187 50.4132C40.3963 50.7355 39.9592 50.9166 39.5033 50.9166H15.5004C15.0446 50.9166 14.6074 50.7355 14.2851 50.4132C13.9627 50.0908 13.7817 49.6537 13.7817 49.1978C13.7817 48.742 13.9627 48.3048 14.2851 47.9825C14.6074 47.6602 15.0446 47.4791 15.5004 47.4791H25.7831V14.2499H21.2571C21.1427 14.2499 21.0309 14.2842 20.9362 14.3485L17.0496 16.993C16.385 17.4445 15.5989 17.6874 14.7946 17.6874H12.7642L20.4825 35.2874C20.6319 35.6293 20.6659 36.0106 20.5795 36.3736C20.4931 36.7366 20.2909 37.0616 20.0035 37.2995C19.8202 37.4485 19.6369 37.5882 19.2931 37.8105C18.7135 38.1858 18.1069 38.5175 17.4781 38.8028C15.4083 39.7431 13.1606 40.2277 10.8873 40.2237C8.61383 40.2285 6.36599 39.7439 4.29644 38.8028C3.66768 38.5175 3.06101 38.1858 2.48144 37.8105C2.23636 37.6547 1.99997 37.4857 1.77332 37.3041C1.48818 37.0634 1.28762 36.7378 1.20102 36.3749C1.11441 36.012 1.14632 35.6309 1.29207 35.2874L9.00811 17.6874H5.39415C4.93831 17.6874 4.50114 17.5063 4.17881 17.184C3.85648 16.8617 3.6754 16.4245 3.6754 15.9687C3.6754 15.5128 3.85648 15.0757 4.17881 14.7533C4.50114 14.431 4.93831 14.2499 5.39415 14.2499H14.7946C14.9092 14.2499 15.0214 14.2155 15.1177 14.1514L19.0021 11.5068C19.6667 11.053 20.455 10.8124 21.2594 10.8124H25.7831V6.802C25.7831 6.34616 25.9642 5.90899 26.2865 5.58666C26.6088 5.26433 27.046 5.08325 27.5019 5.08325C27.9577 5.08325 28.3949 5.26433 28.7172 5.58666C29.0395 5.90899 29.2206 6.34616 29.2206 6.802ZM5.02749 35.3287C6.83112 36.2889 8.84399 36.7887 10.8873 36.7839C12.9306 36.7887 14.9434 36.2889 16.7471 35.3287L10.8873 21.9683L5.02749 35.3287ZM38.2796 35.2737C38.4675 35.3653 38.6783 35.4639 38.9098 35.5624C40.1244 36.0735 41.9004 36.5937 44.1164 36.5937C46.1367 36.5993 48.1321 36.1481 49.9533 35.2737L44.1164 21.966L38.2796 35.2737Z" fill="#309C54"/>
</g>
</svg>
