<svg width="50" height="56" viewBox="0 0 50 56" fill="none" xmlns="http://www.w3.org/2000/svg">
<g id="Group 1">
<path id="Vector" d="M19.6709 3.61427C19.6709 5.34189 19.7846 7.11498 19.8982 7.59235C20.2392 8.79714 21.1712 9.57002 24.1036 11.0931L26.7178 12.4342V14.5256C26.7178 15.6849 26.786 16.6396 26.8542 16.6396C26.9451 16.6396 27.9453 16.1623 29.0819 15.594C33.5828 13.2981 34.8558 11.9796 35.3786 9.16085C35.6287 7.68328 35.606 4.75086 35.3104 4.47808C35.2423 4.38715 34.333 4.79632 33.2873 5.34189C32.2416 5.91019 30.6959 6.7058 29.8775 7.16044L28.3772 7.95606L28.0135 6.66034C27.5361 4.93272 26.5814 4.0689 22.967 2.11396C21.3531 1.22742 19.9437 0.499994 19.8528 0.499994C19.7391 0.499994 19.6709 1.90937 19.6709 3.61427ZM22.6942 3.59153C25.4675 5.02364 26.4905 6.54668 26.6723 9.61549C26.7405 10.6157 26.6951 11.4113 26.6269 11.4113C26.5359 11.4113 26.195 11.0931 25.8767 10.7294C25.5585 10.3429 24.8765 9.82008 24.3537 9.54729C22.9216 8.8426 21.9668 7.81967 21.6031 6.54668C21.2849 5.47828 21.1257 3.0005 21.3758 3.0005C21.444 3.0005 22.035 3.27329 22.6942 3.59153ZM33.7647 8.18338C33.7647 9.88827 32.9463 11.5932 31.7643 12.3888C30.8777 12.9571 28.65 14.1391 28.4227 14.1391C28.3545 14.1391 28.309 13.4799 28.309 12.6616C28.309 11.0476 28.6727 9.93374 29.3774 9.31997C29.8775 8.86534 33.31 6.86493 33.5828 6.86493C33.6965 6.86493 33.7647 7.45596 33.7647 8.18338Z" fill="#309C54"/>
<path id="Vector_2" d="M37.7401 14.5258C36.8081 14.7304 35.8533 15.1623 33.8757 16.3217C30.4204 18.3221 27.5562 19.0268 25.1011 18.4585C24.4192 18.3221 22.487 17.5492 20.8048 16.7536C19.1227 15.9807 16.9859 15.1396 16.0766 14.935C12.6668 14.1167 8.18861 15.0259 5.46078 17.0946C2.93754 19.0495 1.00532 22.6411 0.368831 26.6647C0.00512065 28.8697 0.0733164 33.6661 0.482491 35.6892C1.55089 41.0312 4.50604 46.8279 7.89309 50.3058C9.64345 52.1017 10.9619 53.0337 13.2351 54.0793C15.531 55.1477 17.395 55.2614 21.2595 54.6476C26.4651 53.8066 26.2605 53.8066 30.034 54.6931C33.8302 55.6024 35.7169 55.716 38.0356 55.1705C40.2179 54.6476 41.7636 53.8293 43.1957 52.3744C44.6733 50.8969 45.5826 49.1238 46.8556 45.3958C47.6057 43.2135 47.7194 42.6225 47.6967 40.8494C47.6967 38.3489 47.1284 36.7122 45.7872 35.1891C43.9004 33.0296 41.6272 32.2795 37.1263 32.2795C35.5124 32.2795 34.2166 32.1885 34.2166 32.0976C34.2166 31.9839 34.4212 30.9837 34.694 29.8471C35.1259 27.9831 35.2396 27.7331 35.8533 27.4148C36.2171 27.233 36.4898 27.0284 36.4444 26.9829C36.2625 26.8011 30.6023 26.2328 30.1704 26.3464C29.693 26.4601 29.6703 26.5737 29.6703 29.6198C29.6703 32.4386 29.6248 32.8023 29.2838 32.9614C28.7155 33.166 22.5097 33.166 21.214 32.9387C19.6682 32.6659 19.7591 33.1887 21.4868 34.3253C23.0098 35.3483 24.2601 35.6892 27.3516 35.8938L29.4429 36.0302V37.0759C29.4657 40.0083 30.4431 44.191 31.2842 44.9638C31.7616 45.3958 31.7843 45.373 32.1708 42.6679C32.3072 41.7814 32.6254 39.9174 32.8982 38.508L33.3528 35.962H35.8988C39.8087 35.962 41.8318 36.6667 42.6502 38.2807C43.4231 39.781 43.173 42.0087 41.9455 45.1457C40.4452 48.9419 39.2404 50.2376 36.7626 50.7605C35.1941 51.0787 33.7165 50.9423 30.5795 50.1694C27.5107 49.442 25.3057 49.442 21.0549 50.1694C19.259 50.4877 17.4405 50.7377 17.0541 50.7377C16.6449 50.7377 15.4856 50.3286 14.4626 49.8057C8.34773 46.7369 3.25578 36.553 3.86955 28.5742C4.39238 21.9819 7.14294 18.413 12.394 17.5037C14.349 17.1627 15.6219 17.3901 18.4862 18.5721C23.5781 20.7089 23.9418 20.7999 26.3741 20.8226C29.4884 20.8226 31.5115 20.1634 34.8531 18.0266C37.0581 16.6172 37.9447 16.2307 39.4904 16.0489C42.8548 15.6624 46.4691 17.5492 47.8558 20.3907C48.4014 21.5045 48.9697 24.3233 48.9924 26.0736C49.0379 27.9831 49.3334 28.2786 49.6289 26.7556C50.1744 24.1187 49.7653 21.2545 48.6059 19.0722C47.4921 17.0264 44.9234 15.1851 42.3774 14.6168C41.3772 14.3895 38.6039 14.3213 37.7401 14.5258Z" fill="#309C54"/>
</g>
</svg>
