<svg width="57" height="57" viewBox="0 0 57 57" fill="none" xmlns="http://www.w3.org/2000/svg">
<g id="bi:house-add" clip-path="url(#clip0_7661_1357)">
<g id="Group">
<path id="Vector" d="M31.019 5.34383C30.3509 4.67597 29.4449 4.30078 28.5003 4.30078C27.5557 4.30078 26.6497 4.67597 25.9816 5.34383L2.30167 29.0202C2.13606 29.1858 2.00469 29.3824 1.91506 29.5988C1.82543 29.8152 1.7793 30.0471 1.7793 30.2813C1.7793 30.5155 1.82543 30.7475 1.91506 30.9639C2.00469 31.1802 2.13606 31.3768 2.30167 31.5425C2.63614 31.8769 3.08978 32.0648 3.5628 32.0648C3.79701 32.0648 4.02893 32.0187 4.24531 31.9291C4.4617 31.8394 4.65831 31.7081 4.82392 31.5425L7.1253 29.2375V48.0938C7.1253 49.5111 7.6883 50.8703 8.69044 51.8724C9.69259 52.8746 11.0518 53.4376 12.469 53.4376H26.719C27.1915 53.4376 27.6445 53.2499 27.9786 52.9159C28.3126 52.5818 28.5003 52.1287 28.5003 51.6563C28.5003 51.1839 28.3126 50.7308 27.9786 50.3968C27.6445 50.0627 27.1915 49.8751 26.719 49.8751H12.469C11.9966 49.8751 11.5436 49.6874 11.2095 49.3534C10.8755 49.0193 10.6878 48.5662 10.6878 48.0938V25.675L28.5003 7.86252L52.1767 31.5425C52.5111 31.8769 52.9648 32.0648 53.4378 32.0648C53.9108 32.0648 54.3644 31.8769 54.6989 31.5425C55.0334 31.208 55.2213 30.7543 55.2213 30.2813C55.2213 29.8083 55.0334 29.3547 54.6989 29.0202L46.3128 20.6376V8.90633C46.3128 8.43392 46.1251 7.98085 45.7911 7.6468C45.457 7.31275 45.004 7.12508 44.5315 7.12508H40.969C40.4966 7.12508 40.0436 7.31275 39.7095 7.6468C39.3755 7.98085 39.1878 8.43392 39.1878 8.90633V13.5126L31.019 5.34383Z" fill="#309C54"/>
<path id="Vector_2" d="M57 44.5312C57 47.8382 55.6863 51.0096 53.348 53.348C51.0096 55.6863 47.8382 57 44.5312 57C41.2243 57 38.0529 55.6863 35.7145 53.348C33.3762 51.0096 32.0625 47.8382 32.0625 44.5312C32.0625 41.2243 33.3762 38.0529 35.7145 35.7145C38.0529 33.3762 41.2243 32.0625 44.5312 32.0625C47.8382 32.0625 51.0096 33.3762 53.348 35.7145C55.6863 38.0529 57 41.2243 57 44.5312ZM44.5312 37.4062C44.0588 37.4062 43.6058 37.5939 43.2717 37.928C42.9377 38.262 42.75 38.7151 42.75 39.1875V42.75H39.1875C38.7151 42.75 38.262 42.9377 37.928 43.2717C37.5939 43.6058 37.4062 44.0588 37.4062 44.5312C37.4062 45.0037 37.5939 45.4567 37.928 45.7908C38.262 46.1248 38.7151 46.3125 39.1875 46.3125H42.75V49.875C42.75 50.3474 42.9377 50.8005 43.2717 51.1345C43.6058 51.4686 44.0588 51.6562 44.5312 51.6562C45.0037 51.6562 45.4567 51.4686 45.7908 51.1345C46.1248 50.8005 46.3125 50.3474 46.3125 49.875V46.3125H49.875C50.3474 46.3125 50.8005 46.1248 51.1345 45.7908C51.4686 45.4567 51.6562 45.0037 51.6562 44.5312C51.6562 44.0588 51.4686 43.6058 51.1345 43.2717C50.8005 42.9377 50.3474 42.75 49.875 42.75H46.3125V39.1875C46.3125 38.7151 46.1248 38.262 45.7908 37.928C45.4567 37.5939 45.0037 37.4062 44.5312 37.4062Z" fill="#309C54"/>
</g>
</g>
<defs>
<clipPath id="clip0_7661_1357">
<rect width="57" height="57" fill="white"/>
</clipPath>
</defs>
</svg>
