<svg width="56" height="57" viewBox="0 0 56 57" fill="none" xmlns="http://www.w3.org/2000/svg">
<g id="healthicons:social-work-outline">
<g id="Group">
<path id="Vector" d="M38.2369 42.5081C38.6896 41.8862 39.1714 41.3997 39.6567 40.9074C40.2949 40.2599 40.9401 39.6066 41.5351 38.6324C41.6844 38.3874 41.8361 38.1541 41.9831 37.9254C42.5139 37.1017 42.9864 36.3714 43.0727 35.6248C43.1847 34.6727 43.2547 28.9561 42.9467 28.0904C42.6376 27.2259 40.8584 26.7406 40.2436 28.6772C39.9402 29.6327 39.8446 30.8612 39.7582 31.9766C39.6684 33.1199 39.5891 34.1443 39.3032 34.6273C38.7397 35.5816 36.9256 37.9557 36.9256 37.9557L38.4912 34.9842C38.4912 34.9842 38.7292 34.5736 38.6044 33.7931C38.4784 33.0114 37.5346 31.9194 37.0912 32.7874C36.6479 33.6542 35.8721 34.4371 35.8721 34.4371L33.1327 37.7376C33.1327 37.7376 32.2402 38.8949 32.2157 39.5296C32.2076 39.7419 32.0757 40.2133 31.9241 40.7464C31.7549 41.3484 31.5624 42.0297 31.5017 42.5081V43.6666H38.2369V42.5081ZM16.5416 42.5081C16.0877 41.8862 15.6047 41.3997 15.1182 40.9074C14.4766 40.2599 13.8302 39.6066 13.2329 38.6324C13.0836 38.3874 12.9307 38.1529 12.7837 37.9242C12.2506 37.1017 11.7781 36.3726 11.6894 35.6259C11.5774 34.6727 11.9262 28.9561 12.2354 28.0904C12.5457 27.2259 14.3307 26.7406 14.9479 28.6772C15.2512 29.6327 15.3481 30.8612 15.4356 31.9766C15.5242 33.1199 15.6047 34.1443 15.8906 34.6273C16.4564 35.5816 18.2764 37.9557 18.2764 37.9557L16.7061 34.9842C16.7061 34.9842 16.4669 34.5736 16.5929 33.7931C16.7189 33.0114 17.6662 31.9194 18.1107 32.7874C18.5564 33.6542 19.3346 34.4371 19.3346 34.4371L22.0821 37.7376C22.0821 37.7376 22.9781 38.8949 23.0026 39.5296C23.0201 39.9811 23.2207 41.6062 23.3351 42.5081V43.6666H16.5416V42.5081ZM23.0796 13.3333C19.8561 13.3333 17.5017 16.8169 17.5017 20.5748C17.5017 28.9631 28.0017 34.3332 28.0017 34.3332C28.0017 34.3332 38.5017 28.6166 38.5017 20.5748C38.5017 16.8181 36.1474 13.3333 32.9239 13.3333C30.6862 13.3333 29.0272 14.8966 28.0017 17.1133C26.9774 14.8966 25.3172 13.3333 23.0796 13.3333Z" fill="#309C54"/>
<path id="Vector_2" fill-rule="evenodd" clip-rule="evenodd" d="M7.00195 46C7.00195 46.9283 7.3707 47.8185 8.02708 48.4749C8.68346 49.1312 9.5737 49.5 10.502 49.5H45.502C46.4302 49.5 47.3204 49.1312 47.9768 48.4749C48.6332 47.8185 49.002 46.9283 49.002 46V11C49.002 10.0717 48.6332 9.1815 47.9768 8.52513C47.3204 7.86875 46.4302 7.5 45.502 7.5H10.502C9.5737 7.5 8.68346 7.86875 8.02708 8.52513C7.3707 9.1815 7.00195 10.0717 7.00195 11V46ZM9.33529 11C9.33529 10.6906 9.4582 10.3938 9.677 10.175C9.89579 9.95625 10.1925 9.83333 10.502 9.83333H45.502C45.8114 9.83333 46.1081 9.95625 46.3269 10.175C46.5457 10.3938 46.6686 10.6906 46.6686 11V46C46.6686 46.3094 46.5457 46.6062 46.3269 46.825C46.1081 47.0438 45.8114 47.1667 45.502 47.1667H38.502V46C38.502 45.6906 38.379 45.3938 38.1602 45.175C37.9415 44.9562 37.6447 44.8333 37.3353 44.8333H32.6686C32.3592 44.8333 32.0625 44.9562 31.8437 45.175C31.6249 45.3938 31.502 45.6906 31.502 46V47.1667H23.3353V46C23.3353 45.6906 23.2124 45.3938 22.9936 45.175C22.7748 44.9562 22.478 44.8333 22.1686 44.8333H17.502C17.1925 44.8333 16.8958 44.9562 16.677 45.175C16.4582 45.3938 16.3353 45.6906 16.3353 46V47.1667H10.502C10.1925 47.1667 9.89579 47.0438 9.677 46.825C9.4582 46.6062 9.33529 46.3094 9.33529 46V11Z" fill="#309C54"/>
</g>
</g>
</svg>
