<svg width="50" height="50" viewBox="0 0 50 50" fill="none" xmlns="http://www.w3.org/2000/svg">
<circle cx="25" cy="25" r="24.5" stroke="#309C54"/>
<path d="M35.2364 28.5328L30.0695 26.2173C29.8354 26.117 29.58 26.0766 29.3264 26.0999C29.0728 26.1232 28.829 26.2094 28.617 26.3507C28.5955 26.3645 28.5751 26.3799 28.5558 26.3967L25.8553 28.6935C25.8273 28.7088 25.7961 28.7174 25.7642 28.7185C25.7323 28.7196 25.7006 28.7133 25.6716 28.7001C23.9358 27.8623 22.1377 26.0751 21.2966 24.3634C21.2826 24.3348 21.2753 24.3034 21.2753 24.2715C21.2753 24.2397 21.2826 24.2082 21.2966 24.1796L23.6011 21.4453C23.6176 21.425 23.633 21.4038 23.647 21.3818C23.7864 21.1691 23.8705 20.925 23.8919 20.6716C23.9133 20.4182 23.8712 20.1635 23.7695 19.9304L21.4705 14.7723C21.3399 14.4678 21.1141 14.2139 20.827 14.0486C20.5398 13.8833 20.2069 13.8157 19.878 13.8557C18.4487 14.0436 17.1367 14.7455 16.1873 15.8303C15.2378 16.915 14.7158 18.3084 14.7188 19.7499C14.7188 28.314 21.686 35.2812 30.25 35.2812C31.6915 35.284 33.0848 34.7619 34.1694 33.8124C35.2541 32.863 35.9561 31.5512 36.1442 30.122C36.1842 29.7946 36.1175 29.4631 35.9539 29.1768C35.7903 28.8905 35.5387 28.6646 35.2364 28.5328ZM30.25 33.9687C22.41 33.9687 16.0313 27.5899 16.0313 19.7499C16.0276 18.6277 16.4327 17.5425 17.1708 16.6971C17.9089 15.8517 18.9295 15.3039 20.042 15.1562H20.0672C20.1113 15.157 20.1541 15.1711 20.19 15.1967C20.2259 15.2223 20.2532 15.2581 20.2685 15.2995L22.5763 20.4521C22.5894 20.4808 22.5962 20.5119 22.5962 20.5435C22.5962 20.575 22.5894 20.6061 22.5763 20.6348L20.2674 23.3757C20.2501 23.3953 20.2344 23.4161 20.2203 23.4381C20.0758 23.6586 19.9908 23.9128 19.9733 24.1759C19.9559 24.4389 20.0067 24.7021 20.1208 24.9398C21.091 26.926 23.0925 28.9123 25.1006 29.8824C25.3397 29.9959 25.6041 30.0455 25.8681 30.0263C26.1321 30.0071 26.3865 29.9199 26.6067 29.7731C26.6275 29.7588 26.6483 29.7435 26.668 29.7271L29.3674 27.4303C29.394 27.4159 29.4235 27.4075 29.4537 27.4056C29.4839 27.4038 29.5141 27.4084 29.5424 27.4193L34.7103 29.7348C34.7525 29.7528 34.788 29.7836 34.8118 29.8228C34.8355 29.8621 34.8463 29.9078 34.8427 29.9535C34.6957 31.0665 34.1485 32.088 33.3033 32.8269C32.458 33.5658 31.3727 33.9717 30.25 33.9687Z" fill="#309C54"/>
</svg>
