<svg width="35" height="35" viewBox="0 0 35 35" fill="none" xmlns="http://www.w3.org/2000/svg">
<g id="fluent-mdl2:diagnostic">
<path id="Vector" d="M32.8125 2.1875V32.8125H2.1875V2.1875H32.8125ZM4.375 4.375V21.875H6.93848L8.80127 20.0122C9.01774 19.7957 9.27409 19.6875 9.57031 19.6875C9.86654 19.6875 10.1229 19.7957 10.3394 20.0122L13.3643 23.02L17.5342 6.83594C17.5911 6.59668 17.7165 6.40299 17.9102 6.25488C18.1038 6.10677 18.3317 6.02702 18.5938 6.01562C18.8558 6.01562 19.0837 6.08968 19.2773 6.23779C19.471 6.3859 19.5964 6.59098 19.6533 6.85303L21.3965 13.9795H24.0625C24.3132 13.9795 24.5353 14.0535 24.729 14.2017C24.9227 14.3498 25.0537 14.5492 25.1221 14.7998L26.3525 19.6875H30.625V4.375H4.375ZM30.625 30.625V21.875H25.498C25.236 21.875 25.0081 21.8009 24.8145 21.6528C24.6208 21.5047 24.4954 21.2996 24.4385 21.0376L23.208 16.167H20.542C20.2799 16.167 20.0521 16.0929 19.8584 15.9448C19.6647 15.7967 19.5394 15.5916 19.4824 15.3296L18.5596 11.604L15.0049 25.4297C14.9479 25.6689 14.8226 25.8626 14.6289 26.0107C14.4352 26.1589 14.2074 26.2386 13.9453 26.25C13.6491 26.25 13.3927 26.1418 13.1763 25.9253L9.57031 22.3193L8.15186 23.7378C7.93538 23.9543 7.67904 24.0625 7.38281 24.0625H4.375V30.625H30.625Z" fill="#309C54"/>
</g>
</svg>
