<svg width="50" height="50" viewBox="0 0 50 50" fill="none" xmlns="http://www.w3.org/2000/svg">
<circle cx="25" cy="25" r="24.5" stroke="#309C54"/>
<g clip-path="url(#clip0_7702_5603)">
<path d="M34.5938 28.7969C36.6563 28.7969 38.2969 27.1563 38.2969 25.0938C38.2969 23.0313 36.6563 21.3906 34.5938 21.3906C32.5313 21.3906 30.8906 23.0313 30.8906 25.0938C30.8906 27.1094 32.5313 28.7969 34.5938 28.7969ZM34.5938 22.75C35.8594 22.75 36.8906 23.7813 36.8906 25.0469C36.8906 26.3125 35.8594 27.3438 34.5938 27.3438C33.3281 27.3438 32.2969 26.3125 32.2969 25.0469C32.2969 23.8281 33.3281 22.75 34.5938 22.75Z" fill="#309C54"/>
<path d="M19.5469 21.25C21.6094 21.25 23.25 19.6094 23.25 17.5469C23.25 15.4844 21.6094 13.8438 19.5469 13.8438C17.4844 13.8438 15.8437 15.4844 15.8437 17.5469C15.8437 19.6094 17.5313 21.25 19.5469 21.25ZM19.5469 15.25C20.8125 15.25 21.8438 16.2812 21.8438 17.5469C21.8438 18.8125 20.8125 19.8437 19.5469 19.8437C18.2813 19.8437 17.25 18.8125 17.25 17.5469C17.25 16.2812 18.2813 15.25 19.5469 15.25Z" fill="#309C54"/>
<path d="M19.5469 36.2969C21.6094 36.2969 23.25 34.6563 23.25 32.5938C23.25 30.5313 21.6094 28.8906 19.5469 28.8906C17.4844 28.8906 15.8437 30.5313 15.8437 32.5938C15.8437 34.6563 17.5313 36.2969 19.5469 36.2969ZM19.5469 30.2969C20.8125 30.2969 21.8438 31.3281 21.8438 32.5938C21.8438 33.8594 20.8125 34.8906 19.5469 34.8906C18.2813 34.8906 17.25 33.8594 17.25 32.5938C17.25 31.3281 18.2813 30.2969 19.5469 30.2969Z" fill="#309C54"/>
<path d="M22.5937 31.9375L32.25 27.1094L31.5937 25.75L21.8906 30.5781L22.5937 31.9375Z" fill="#309C54"/>
<path d="M31.5937 24.3906L32.25 23.0781L22.5937 18.25L21.8906 19.5625L31.5937 24.3906Z" fill="#309C54"/>
</g>
<defs>
<clipPath id="clip0_7702_5603">
<rect width="28" height="28" fill="white" transform="matrix(-1 0 0 1 40 11)"/>
</clipPath>
</defs>
</svg>
