<svg width="50" height="50" viewBox="0 0 50 50" fill="none" xmlns="http://www.w3.org/2000/svg">
<circle cx="25" cy="25" r="24.5" stroke="#309C54"/>
<path d="M25 13.25C27.5859 13.25 30.0658 14.2772 31.8943 16.1057C33.7228 17.9342 34.75 20.4141 34.75 23C34.75 27.12 31.855 31.61 26.14 36.518C25.8222 36.791 25.4171 36.9409 24.9981 36.9405C24.5792 36.9402 24.1743 36.7895 23.857 36.516L23.479 36.188C18.017 31.408 15.25 27.028 15.25 23C15.25 20.4141 16.2772 17.9342 18.1057 16.1057C19.9342 14.2772 22.4141 13.25 25 13.25ZM25 14.75C22.812 14.75 20.7135 15.6192 19.1664 17.1664C17.6192 18.7135 16.75 20.812 16.75 23C16.75 26.502 19.298 30.537 24.464 35.057L24.837 35.38C24.8824 35.419 24.9402 35.4404 25 35.4404C25.0598 35.4404 25.1176 35.419 25.163 35.38C30.579 30.728 33.25 26.585 33.25 23C33.25 21.9166 33.0366 20.8438 32.622 19.8429C32.2074 18.8419 31.5997 17.9325 30.8336 17.1664C30.0675 16.4003 29.1581 15.7926 28.1571 15.378C27.1562 14.9634 26.0834 14.75 25 14.75ZM25 19.25C25.9946 19.25 26.9484 19.6451 27.6517 20.3483C28.3549 21.0516 28.75 22.0054 28.75 23C28.75 23.9946 28.3549 24.9484 27.6517 25.6517C26.9484 26.3549 25.9946 26.75 25 26.75C24.0054 26.75 23.0516 26.3549 22.3483 25.6517C21.6451 24.9484 21.25 23.9946 21.25 23C21.25 22.0054 21.6451 21.0516 22.3483 20.3483C23.0516 19.6451 24.0054 19.25 25 19.25ZM25 20.75C24.4033 20.75 23.831 20.9871 23.409 21.409C22.9871 21.831 22.75 22.4033 22.75 23C22.75 23.5967 22.9871 24.169 23.409 24.591C23.831 25.0129 24.4033 25.25 25 25.25C25.5967 25.25 26.169 25.0129 26.591 24.591C27.0129 24.169 27.25 23.5967 27.25 23C27.25 22.4033 27.0129 21.831 26.591 21.409C26.169 20.9871 25.5967 20.75 25 20.75Z" fill="#309C54"/>
</svg>
