<svg width="35" height="35" viewBox="0 0 35 35" fill="none" xmlns="http://www.w3.org/2000/svg">
<g id="healthicons:doctor-outline">
<path id="Vector" fill-rule="evenodd" clip-rule="evenodd" d="M24.7917 11.6667C24.7917 15.6939 21.5272 18.9583 17.5 18.9583C13.4728 18.9583 10.2083 15.6939 10.2083 11.6667C10.2083 7.63948 13.4728 4.375 17.5 4.375C21.5272 4.375 24.7917 7.63948 24.7917 11.6667ZM23.3333 11.6667C23.3333 13.2138 22.7188 14.6975 21.6248 15.7915C20.5308 16.8854 19.0471 17.5 17.5 17.5C15.9529 17.5 14.4692 16.8854 13.3752 15.7915C12.2812 14.6975 11.6667 13.2138 11.6667 11.6667C11.6667 10.1196 12.2812 8.63584 13.3752 7.54188C14.4692 6.44791 15.9529 5.83333 17.5 5.83333C19.0471 5.83333 20.5308 6.44791 21.6248 7.54188C22.7188 8.63584 23.3333 10.1196 23.3333 11.6667ZM13.0623 21.0401L13.0703 21.0561L13.125 21.1633H21.692C21.859 20.8469 22.2374 20.3423 22.6042 20.4261C23.4281 20.6135 24.2579 20.8746 25.0549 21.1961L25.079 21.1845L25.087 21.2005L25.0928 21.2115C28.0933 22.4306 30.625 24.4971 30.625 26.6656V30.625H4.375V26.6656C4.375 23.913 8.45542 21.323 12.3958 20.4261C12.7174 20.3532 12.9084 20.7324 13.0623 21.0401ZM23.8467 22.3001C23.5339 22.1906 23.2175 22.0916 22.898 22.0033L22.5728 22.6217H12.2449L11.943 22.0478L11.6805 22.1266C11.6754 22.1747 11.671 22.2286 11.6689 22.2899C11.6594 22.5415 11.6783 22.8397 11.7199 23.143C11.7626 23.4594 11.8308 23.7718 11.9241 24.0771C12.4363 24.1378 12.9106 24.3775 13.2632 24.7539C13.6158 25.1304 13.8241 25.6193 13.8512 26.1344C13.8783 26.6495 13.7225 27.1576 13.4114 27.569C13.1002 27.9804 12.6537 28.2686 12.1507 28.3827C11.6477 28.4968 11.1205 28.4295 10.6623 28.1927C10.2041 27.9558 9.8443 27.5647 9.64648 27.0884C9.44865 26.612 9.42552 26.0811 9.58116 25.5893C9.7368 25.0976 10.0612 24.6766 10.4971 24.4008L10.4913 24.3804C10.3941 24.0395 10.3217 23.692 10.2747 23.3406C10.2438 23.1161 10.2233 22.8903 10.2134 22.664C9.31219 23.049 8.47146 23.5142 7.76708 24.0275C6.36563 25.0513 5.83333 26.0079 5.83333 26.6656V29.1667H29.1667V26.6656C29.1667 26.0072 28.6344 25.0505 27.2329 24.0282C26.6218 23.5888 25.971 23.2075 25.289 22.8893C25.2593 23.2845 25.1988 23.6767 25.1081 24.0625H25.5208C25.6562 24.0626 25.7889 24.1003 25.904 24.1715C26.0192 24.2428 26.1122 24.3446 26.1727 24.4657L26.9019 25.9241C26.9529 26.0254 26.9792 26.137 26.9792 26.25V27.7083C26.9792 27.9017 26.9023 28.0872 26.7656 28.2239C26.6289 28.3607 26.4434 28.4375 26.25 28.4375H24.7917V26.9792H25.5208V26.4221L25.0702 25.5208H23.0548L22.6042 26.4221V26.9792H23.3333V28.4375H21.875C21.6816 28.4375 21.4961 28.3607 21.3594 28.2239C21.2227 28.0872 21.1458 27.9017 21.1458 27.7083V26.25C21.1458 26.137 21.1721 26.0254 21.2231 25.9241L21.9523 24.4657C22.0128 24.3446 22.1058 24.2428 22.221 24.1715C22.3361 24.1003 22.4688 24.0626 22.6042 24.0625H23.5973C23.606 24.0333 23.6155 24.0042 23.6243 23.9721C23.6928 23.738 23.7541 23.4471 23.7956 23.1438C23.8365 22.8433 23.8554 22.5495 23.8467 22.3001ZM12.3958 26.25C12.3958 26.6685 12.059 26.9901 11.6667 26.9901C11.2744 26.9901 10.9375 26.6693 10.9375 26.25C10.9375 25.8315 11.2744 25.5099 11.6667 25.5099C12.059 25.5099 12.3958 25.8307 12.3958 26.25Z" fill="#309C54"/>
</g>
</svg>
