<svg width="35" height="35" viewBox="0 0 35 35" fill="none" xmlns="http://www.w3.org/2000/svg">
<g id="maki:doctor">
<path id="Vector" d="M12.8334 16.3333C11.2863 16.3333 9.80259 15.7188 8.70862 14.6248C7.61466 13.5308 7.00008 12.0471 7.00008 10.5V5.83334C7.00008 5.52392 7.123 5.22717 7.34179 5.00838C7.56058 4.78959 7.85733 4.66667 8.16675 4.66667H9.33341C9.64283 4.66667 9.93958 4.54375 10.1584 4.32496C10.3772 4.10617 10.5001 3.80942 10.5001 3.5C10.5001 3.19058 10.3772 2.89384 10.1584 2.67504C9.93958 2.45625 9.64283 2.33334 9.33341 2.33334H8.16675C7.23849 2.33334 6.34825 2.70208 5.69187 3.35846C5.0355 4.01484 4.66675 4.90508 4.66675 5.83334V10.5C4.66825 11.818 4.98965 13.116 5.60335 14.2824C6.21705 15.4489 7.1047 16.4489 8.19008 17.1967C9.23288 18.116 10.0786 19.2372 10.6761 20.4924C11.2737 21.7476 11.6106 23.1109 11.6667 24.5C11.6667 26.6659 12.5272 28.7432 14.0587 30.2747C15.5903 31.8063 17.6675 32.6667 19.8334 32.6667C21.9993 32.6667 24.0766 31.8063 25.6081 30.2747C27.1397 28.7432 28.0001 26.6659 28.0001 24.5V23.17C29.0998 22.886 30.0583 22.2107 30.6958 21.2707C31.3333 20.3306 31.606 19.1903 31.4629 18.0635C31.3198 16.9367 30.7706 15.9008 29.9184 15.15C29.0661 14.3991 27.9692 13.9849 26.8334 13.9849C25.6976 13.9849 24.6007 14.3991 23.7485 15.15C22.8962 15.9008 22.3471 16.9367 22.2039 18.0635C22.0608 19.1903 22.3336 20.3306 22.971 21.2707C23.6085 22.2107 24.567 22.886 25.6667 23.17V24.5C25.6667 26.0471 25.0522 27.5308 23.9582 28.6248C22.8642 29.7188 21.3805 30.3333 19.8334 30.3333C18.2863 30.3333 16.8026 29.7188 15.7086 28.6248C14.6147 27.5308 14.0001 26.0471 14.0001 24.5C14.0591 23.1092 14.3998 21.7449 15.0014 20.4895C15.603 19.2342 16.453 18.114 17.5001 17.1967C18.5811 16.4463 19.4643 15.4451 20.0738 14.2789C20.6834 13.1126 21.0012 11.816 21.0001 10.5V5.83334C21.0001 4.90508 20.6313 4.01484 19.975 3.35846C19.3186 2.70208 18.4283 2.33334 17.5001 2.33334H16.3334C16.024 2.33334 15.7272 2.45625 15.5085 2.67504C15.2897 2.89384 15.1667 3.19058 15.1667 3.5C15.1667 3.80942 15.2897 4.10617 15.5085 4.32496C15.7272 4.54375 16.024 4.66667 16.3334 4.66667H17.5001C17.8095 4.66667 18.1062 4.78959 18.325 5.00838C18.5438 5.22717 18.6667 5.52392 18.6667 5.83334V10.5C18.6667 11.266 18.5159 12.0246 18.2227 12.7323C17.9296 13.4401 17.4999 14.0831 16.9582 14.6248C16.4165 15.1665 15.7735 15.5961 15.0657 15.8893C14.358 16.1825 13.5995 16.3333 12.8334 16.3333ZM26.8334 21C26.2146 21 25.6211 20.7542 25.1835 20.3166C24.7459 19.879 24.5001 19.2855 24.5001 18.6667C24.5001 18.0478 24.7459 17.4543 25.1835 17.0168C25.6211 16.5792 26.2146 16.3333 26.8334 16.3333C27.4523 16.3333 28.0457 16.5792 28.4833 17.0168C28.9209 17.4543 29.1667 18.0478 29.1667 18.6667C29.1667 19.2855 28.9209 19.879 28.4833 20.3166C28.0457 20.7542 27.4523 21 26.8334 21Z" fill="#309C54"/>
</g>
</svg>
