<svg width="35" height="35" viewBox="0 0 35 35" fill="none" xmlns="http://www.w3.org/2000/svg">
<g id="mdi:tooth-outline">
<path id="Vector" d="M10.2084 2.91667C5.83341 2.91667 2.91675 7.29167 2.91675 11.6667C2.91675 14.7438 4.37508 18.9583 5.83341 20.4167C7.29175 21.875 8.75008 32.0833 11.6667 32.0833C18.2876 32.0833 14.5834 21.875 17.5001 21.875C20.4167 21.875 16.7126 32.0833 23.3334 32.0833C26.2501 32.0833 27.7084 21.875 29.1667 20.4167C30.6251 18.9583 32.0834 14.7438 32.0834 11.6667C32.0834 7.29167 29.1667 2.91667 24.7917 2.91667C20.4167 2.91667 20.4167 4.37501 17.5001 4.37501C14.5834 4.37501 14.5834 2.91667 10.2084 2.91667ZM10.2084 5.83334C13.1251 5.83334 14.5834 7.29167 17.5001 7.29167C20.4167 7.29167 21.8751 5.83334 24.7917 5.83334C27.2272 5.83334 29.1667 8.75001 29.1667 11.6667C29.1667 14.2188 27.9126 17.6604 26.5272 19.0458C25.273 20.3 23.4209 29.0792 22.6042 29.0792C22.298 29.0792 21.8751 27.5333 21.8751 25.6521C21.8751 22.6771 21.0438 18.9583 17.5001 18.9583C13.9563 18.9583 13.1251 22.6771 13.1251 25.6521C13.1251 27.5333 12.7022 29.0792 12.3959 29.0792C11.5792 29.0792 9.72716 20.3 8.473 19.0458C7.08758 17.6604 5.83341 14.2188 5.83341 11.6667C5.83341 8.75001 7.773 5.83334 10.2084 5.83334Z" fill="#309C54"/>
</g>
</svg>
