<svg width="35" height="35" viewBox="0 0 35 35" fill="none" xmlns="http://www.w3.org/2000/svg">
<g id="tabler:building-hospital">
<g id="Group">
<path id="Vector" d="M4.375 30.625H30.625M7.29167 30.625V7.29167C7.29167 6.51812 7.59896 5.77625 8.14594 5.22927C8.69292 4.68229 9.43479 4.375 10.2083 4.375H24.7917C25.5652 4.375 26.3071 4.68229 26.8541 5.22927C27.401 5.77625 27.7083 6.51812 27.7083 7.29167V30.625" stroke="#309C54" stroke-width="2" stroke-linecap="round" stroke-linejoin="round"/>
<path id="Vector_2" d="M13.125 30.625V24.7917C13.125 24.0181 13.4323 23.2763 13.9793 22.7293C14.5263 22.1823 15.2681 21.875 16.0417 21.875H18.9583C19.7319 21.875 20.4737 22.1823 21.0207 22.7293C21.5677 23.2763 21.875 24.0181 21.875 24.7917V30.625M14.5833 13.125H20.4167M17.5 10.2083V16.0417" stroke="#309C54" stroke-width="2" stroke-linecap="round" stroke-linejoin="round"/>
</g>
</g>
</svg>
