<svg width="24" height="25" viewBox="0 0 24 25" fill="none" xmlns="http://www.w3.org/2000/svg">
<g id="mdi-light:account">
<path id="Vector" d="M11.5 14.5C15.64 14.5 19 16.07 19 18V20.5H4V18C4 16.07 7.36 14.5 11.5 14.5ZM18 18C18 16.62 15.09 15.5 11.5 15.5C7.91 15.5 5 16.62 5 18V19.5H18V18ZM11.5 5.5C12.4283 5.5 13.3185 5.86875 13.9749 6.52513C14.6313 7.1815 15 8.07174 15 9C15 9.92826 14.6313 10.8185 13.9749 11.4749C13.3185 12.1313 12.4283 12.5 11.5 12.5C10.5717 12.5 9.6815 12.1313 9.02513 11.4749C8.36875 10.8185 8 9.92826 8 9C8 8.07174 8.36875 7.1815 9.02513 6.52513C9.6815 5.86875 10.5717 5.5 11.5 5.5ZM11.5 6.5C10.837 6.5 10.2011 6.76339 9.73223 7.23223C9.26339 7.70107 9 8.33696 9 9C9 9.66304 9.26339 10.2989 9.73223 10.7678C10.2011 11.2366 10.837 11.5 11.5 11.5C12.163 11.5 12.7989 11.2366 13.2678 10.7678C13.7366 10.2989 14 9.66304 14 9C14 8.33696 13.7366 7.70107 13.2678 7.23223C12.7989 6.76339 12.163 6.5 11.5 6.5Z" fill="white"/>
</g>
</svg>
