<svg xmlns="http://www.w3.org/2000/svg" width="19" height="18" viewBox="0 0 19 18" fill="none">
<g clip-path="url(#clip0_7033_13384)">
<path d="M16.7866 13.9152C16.3045 13.4854 15.8824 12.9926 15.5316 12.4502C15.1488 11.7015 14.9193 10.8838 14.8566 10.0452V7.57519C14.86 6.258 14.3821 4.98493 13.513 3.99518C12.6439 3.00543 11.4432 2.36713 10.1366 2.2002V1.5552C10.1366 1.37816 10.0663 1.20838 9.94113 1.0832C9.81595 0.958021 9.64617 0.887695 9.46914 0.887695C9.29211 0.887695 9.12233 0.958021 8.99715 1.0832C8.87197 1.20838 8.80164 1.37816 8.80164 1.5552V2.2102C7.50677 2.38916 6.32063 3.03132 5.4629 4.01775C4.60518 5.00417 4.13401 6.26802 4.13664 7.57519V10.0452C4.07402 10.8838 3.84453 11.7015 3.46164 12.4502C3.11708 12.9914 2.70174 13.4841 2.22664 13.9152C2.17331 13.962 2.13056 14.0197 2.10125 14.0844C2.07194 14.149 2.05673 14.2192 2.05664 14.2902V14.9702C2.05664 15.1028 2.10932 15.23 2.20309 15.3237C2.29686 15.4175 2.42403 15.4702 2.55664 15.4702H16.4566C16.5892 15.4702 16.7164 15.4175 16.8102 15.3237C16.904 15.23 16.9566 15.1028 16.9566 14.9702V14.2902C16.9566 14.2192 16.9413 14.149 16.912 14.0844C16.8827 14.0197 16.84 13.962 16.7866 13.9152ZM3.09664 14.4702C3.56185 14.0208 3.97144 13.5172 4.31664 12.9702C4.79895 12.0659 5.08036 11.0682 5.14164 10.0452V7.57519C5.12181 6.98921 5.2201 6.40523 5.43066 5.85803C5.64122 5.31082 5.95975 4.81159 6.36726 4.39005C6.77478 3.9685 7.26296 3.63328 7.80273 3.40433C8.3425 3.17539 8.92282 3.0574 9.50914 3.0574C10.0955 3.0574 10.6758 3.17539 11.2156 3.40433C11.7553 3.63328 12.2435 3.9685 12.651 4.39005C13.0585 4.81159 13.3771 5.31082 13.5876 5.85803C13.7982 6.40523 13.8965 6.98921 13.8766 7.57519V10.0452C13.9379 11.0682 14.2193 12.0659 14.7016 12.9702C15.0468 13.5172 15.4564 14.0208 15.9216 14.4702H3.09664Z" fill="#FDFFFE"/>
<path d="M9.53141 17.14C9.84637 17.1327 10.1486 17.0143 10.3847 16.8057C10.6208 16.5971 10.7755 16.3117 10.8214 16H8.19141C8.23864 16.3202 8.40057 16.6123 8.64706 16.822C8.89355 17.0317 9.20782 17.1447 9.53141 17.14Z" fill="#FDFFFE"/>
</g>
<defs>
<clipPath id="clip0_7033_13384">
<rect width="18" height="18" fill="white" transform="translate(0.53125)"/>
</clipPath>
</defs>
</svg>