<svg xmlns="http://www.w3.org/2000/svg" width="22" height="22" viewBox="0 0 22 22" fill="none">
<g clip-path="url(#clip0_6474_3037)">
<path d="M4.27789 3.66656H14.0557V9.65545H15.2779V3.66656C15.2779 3.3424 15.1491 3.03153 14.9199 2.80232C14.6907 2.57311 14.3798 2.44434 14.0557 2.44434H4.27789C3.95373 2.44434 3.64286 2.57311 3.41364 2.80232C3.18443 3.03153 3.05566 3.3424 3.05566 3.66656V18.3332C3.05566 18.6574 3.18443 18.9683 3.41364 19.1975C3.64286 19.4267 3.95373 19.5554 4.27789 19.5554H14.0557C14.3798 19.5554 14.6907 19.4267 14.9199 19.1975C15.1491 18.9683 15.2779 18.6574 15.2779 18.3332H4.27789V3.66656Z" fill="#309C54"/>
<path d="M17.2088 10.56C17.0919 10.4599 16.9415 10.4076 16.7877 10.4135C16.6339 10.4195 16.488 10.4832 16.3791 10.5921C16.2703 10.7009 16.2065 10.8468 16.2006 11.0006C16.1947 11.1544 16.247 11.3048 16.3471 11.4217L18.4127 13.4445H9.55154C9.38946 13.4445 9.23403 13.5089 9.11942 13.6235C9.00481 13.7381 8.94043 13.8935 8.94043 14.0556C8.94043 14.2177 9.00481 14.3731 9.11942 14.4877C9.23403 14.6023 9.38946 14.6667 9.55154 14.6667H18.4127L16.3471 16.7811C16.2831 16.8359 16.2312 16.9033 16.1945 16.9792C16.1578 17.055 16.1372 17.1376 16.1339 17.2217C16.1307 17.3059 16.1449 17.3898 16.1756 17.4682C16.2063 17.5467 16.2529 17.6179 16.3125 17.6774C16.372 17.737 16.4433 17.7836 16.5217 17.8143C16.6001 17.845 16.684 17.8592 16.7682 17.856C16.8523 17.8527 16.9349 17.8321 17.0107 17.7954C17.0866 17.7587 17.154 17.7068 17.2088 17.6428L20.7777 14.0984L17.2088 10.56Z" fill="#309C54"/>
</g>
<defs>
<clipPath id="clip0_6474_3037">
<rect width="22" height="22" fill="white"/>
</clipPath>
</defs>
</svg>