<svg width="19" height="18" viewBox="0 0 19 18" fill="none" xmlns="http://www.w3.org/2000/svg">
<g id="ph:eye-light">
<path id="Vector" d="M17.5571 8.81352C17.5332 8.75867 16.9482 7.46141 15.6418 6.155C14.4296 4.94422 12.3469 3.5 9.29677 3.5C6.24662 3.5 4.16396 4.94422 2.95177 6.155C1.64537 7.46141 1.06037 8.75656 1.03646 8.81352C1.01242 8.86752 1 8.92597 1 8.98508C1 9.04419 1.01242 9.10264 1.03646 9.15664C1.06037 9.21078 1.64537 10.508 2.95177 11.8145C4.16396 13.0252 6.24662 14.4688 9.29677 14.4688C12.3469 14.4688 14.4296 13.0252 15.6418 11.8145C16.9482 10.508 17.5332 9.21289 17.5571 9.15664C17.5811 9.10264 17.5935 9.04419 17.5935 8.98508C17.5935 8.92597 17.5811 8.86752 17.5571 8.81352ZM9.29677 13.625C7.09037 13.625 5.1638 12.822 3.56982 11.2393C2.90162 10.5752 2.33619 9.81523 1.89216 8.98438C2.33606 8.15365 2.90151 7.39387 3.56982 6.73016C5.1638 5.14672 7.09037 4.34375 9.29677 4.34375C11.5032 4.34375 13.4297 5.14672 15.0237 6.73016C15.692 7.39387 16.2575 8.15365 16.7014 8.98438C16.2535 9.84289 14.0077 13.625 9.29677 13.625ZM9.29677 5.75C8.65707 5.75 8.03174 5.93969 7.49985 6.29509C6.96796 6.65049 6.5534 7.15563 6.3086 7.74663C6.0638 8.33764 5.99975 8.98796 6.12455 9.61537C6.24934 10.2428 6.55739 10.8191 7.00972 11.2714C7.46206 11.7238 8.03837 12.0318 8.66578 12.1566C9.29318 12.2814 9.94351 12.2173 10.5345 11.9725C11.1255 11.7277 11.6307 11.3132 11.9861 10.7813C12.3415 10.2494 12.5311 9.62407 12.5311 8.98438C12.53 8.12691 12.1889 7.30488 11.5826 6.69856C10.9763 6.09224 10.1542 5.75112 9.29677 5.75ZM9.29677 11.375C8.82395 11.375 8.36175 11.2348 7.96861 10.9721C7.57548 10.7094 7.26906 10.3361 7.08812 9.89923C6.90718 9.4624 6.85984 8.98172 6.95208 8.51799C7.04433 8.05425 7.27201 7.62828 7.60635 7.29395C7.94068 6.95961 8.36665 6.73193 8.83038 6.63968C9.29412 6.54744 9.77479 6.59478 10.2116 6.77573C10.6485 6.95667 11.0218 7.26308 11.2845 7.65621C11.5472 8.04935 11.6874 8.51155 11.6874 8.98438C11.6874 9.61841 11.4355 10.2265 10.9872 10.6748C10.5389 11.1231 9.93081 11.375 9.29677 11.375Z" fill="white"/>
</g>
</svg>
