<svg xmlns="http://www.w3.org/2000/svg" width="30" height="20" viewBox="0 0 30 20" fill="none">
<path d="M21.1364 11.3571C19.5 11.3571 16.95 11.8186 15 12.7143C13.05 11.805 10.5 11.3571 8.86364 11.3571C5.90455 11.3571 0 12.8229 0 15.7679V19.5H30V15.7679C30 12.8229 24.0955 11.3571 21.1364 11.3571ZM15.6818 17.4643H2.04545V15.7679C2.04545 15.035 5.53636 13.3929 8.86364 13.3929C12.1909 13.3929 15.6818 15.035 15.6818 15.7679V17.4643ZM27.9545 17.4643H17.7273V15.7679C17.7273 15.1436 17.4545 14.6007 17.0182 14.1121C18.2182 13.705 19.6909 13.3929 21.1364 13.3929C24.4636 13.3929 27.9545 15.035 27.9545 15.7679V17.4643ZM8.86364 10C11.4955 10 13.6364 7.86929 13.6364 5.25C13.6364 2.63071 11.4955 0.5 8.86364 0.5C6.23182 0.5 4.09091 2.63071 4.09091 5.25C4.09091 7.86929 6.23182 10 8.86364 10ZM8.86364 2.53571C10.3636 2.53571 11.5909 3.75714 11.5909 5.25C11.5909 6.74286 10.3636 7.96429 8.86364 7.96429C7.36364 7.96429 6.13636 6.74286 6.13636 5.25C6.13636 3.75714 7.36364 2.53571 8.86364 2.53571ZM21.1364 10C23.7682 10 25.9091 7.86929 25.9091 5.25C25.9091 2.63071 23.7682 0.5 21.1364 0.5C18.5045 0.5 16.3636 2.63071 16.3636 5.25C16.3636 7.86929 18.5045 10 21.1364 10ZM21.1364 2.53571C22.6364 2.53571 23.8636 3.75714 23.8636 5.25C23.8636 6.74286 22.6364 7.96429 21.1364 7.96429C19.6364 7.96429 18.4091 6.74286 18.4091 5.25C18.4091 3.75714 19.6364 2.53571 21.1364 2.53571Z" fill="white"/>
</svg>