<svg
													xmlns="http://www.w3.org/2000/svg"
													width="24"
													height="24"
													viewBox="0 0 24 24"
													fill="none">
													<path
														fill-rule="evenodd"
														clip-rule="evenodd"
														d="M9.75018 2.15614C9.5835 2.32282 9.56268 2.46861 9.56268 3.46864V4.59364H8.40956C7.63772 4.59364 7.21922 4.63086 7.14393 4.70614C7.06293 4.78714 7.03143 5.42792 7.03143 6.99767C7.03143 9.64789 6.92447 9.46864 8.50547 9.46864H9.56268V10.5791C9.56268 11.5358 9.5864 11.711 9.73415 11.8447C9.88293 11.9794 10.1838 11.9999 12.0165 11.9999C13.9424 11.9999 14.141 11.9849 14.2825 11.8284C14.4082 11.6895 14.4377 11.4494 14.4377 10.5628V9.46864H15.4949C17.0759 9.46864 16.9689 9.64789 16.9689 6.99767C16.9689 5.42792 16.9374 4.78714 16.8564 4.70614C16.7812 4.63086 16.3627 4.59364 15.5908 4.59364H14.4377V3.46864C14.4377 1.87264 14.5937 1.96864 12.0002 1.96864C10.0627 1.96864 9.92634 1.97998 9.75018 2.15614ZM10.5925 4.10145C10.5917 4.70736 10.5512 5.26629 10.5024 5.34364C10.434 5.45229 10.1413 5.49495 9.21478 5.53114L8.01581 5.57801L7.98993 7.0077L7.96406 8.43739H9.13303C10.6174 8.43739 10.5939 8.41376 10.5939 9.91142V10.9686H12.0002H13.4064V9.91142C13.4064 8.41376 13.383 8.43739 14.8673 8.43739H16.0363L16.0104 7.0077L15.9846 5.57801L14.7856 5.53114C13.8591 5.49495 13.5664 5.45229 13.4979 5.34364C13.4492 5.26629 13.4087 4.70736 13.4078 4.10145L13.4064 2.99989H12.0002H10.5939L10.5925 4.10145ZM2.85956 7.35354C2.3954 7.52267 1.92637 8.04439 1.80356 8.52823C1.73456 8.80011 1.79006 9.87129 2.02097 12.7201C2.39737 17.3647 2.39334 17.3316 2.66287 17.9412C2.97975 18.6578 3.35428 19.033 4.69678 19.9786C5.91356 20.8356 6.1814 21.1238 6.47128 21.8872C6.61997 22.2789 6.78778 22.3703 7.17806 22.2724C7.52634 22.185 7.55653 21.8429 7.27106 21.2194C6.88584 20.3779 6.6419 20.1249 5.29209 19.1665C4.01428 18.2593 3.63525 17.8607 3.46959 17.2499C3.4019 17.0001 2.71893 9.32314 2.71893 8.81154C2.71893 8.60698 3.18056 8.24989 3.44128 8.25289C4.00837 8.25936 4.07409 8.39567 4.50168 10.453C4.85756 12.1654 4.92843 12.3611 5.21897 12.434C5.49825 12.5042 5.81268 12.2471 5.81268 11.9488C5.81268 11.4528 5.07262 8.33492 4.88147 8.02564C4.47872 7.37407 3.60262 7.08289 2.85956 7.35354ZM20.0158 7.33807C19.1374 7.69714 19.0042 7.94361 18.5517 10.0468C18.3515 10.9776 18.1877 11.8336 18.1877 11.9488C18.1877 12.2471 18.5021 12.5042 18.7814 12.434C19.0719 12.3611 19.1428 12.1654 19.4987 10.453C19.9263 8.39567 19.992 8.25936 20.5591 8.25289C20.8198 8.24989 21.2814 8.60698 21.2814 8.81154C21.2814 9.32314 20.5985 17.0001 20.5308 17.2499C20.3644 17.8635 19.983 18.2649 18.7032 19.1735C17.3517 20.1332 17.1137 20.3798 16.7293 21.2194C16.4438 21.8429 16.474 22.185 16.8223 22.2724C17.2117 22.3701 17.3804 22.2787 17.5291 21.8897C17.8208 21.1263 18.0442 20.8857 19.2748 20.0097C20.6452 19.0342 21.0207 18.6575 21.3375 17.9412C21.6069 17.332 21.6026 17.367 21.9808 12.7168C22.211 9.88657 22.2681 8.79767 22.1995 8.54492C22.0805 8.10607 21.722 7.63236 21.372 7.45132C20.9909 7.25426 20.3514 7.20082 20.0158 7.33807ZM5.40534 12.7929C4.51303 13.111 4.07775 14.0763 4.44047 14.9326C4.61381 15.3419 7.06097 17.7186 7.30903 17.7186C7.60003 17.7186 7.8975 17.3757 7.82165 17.1279C7.78687 17.0145 7.21518 16.4014 6.55115 15.7653C5.4734 14.7328 5.34393 14.575 5.34393 14.294C5.34393 13.9594 5.60672 13.6874 5.93006 13.6874C6.07893 13.6874 6.75937 14.1363 8.85956 15.6198C9.51797 16.0849 9.87618 16.4128 10.1026 16.7577C10.2427 16.9713 10.2725 17.3292 10.3127 19.2921C10.3563 21.4167 10.3724 21.5872 10.5415 21.7107C10.7793 21.8843 11.0137 21.8792 11.1967 21.6964C11.3225 21.5704 11.3438 21.2188 11.343 19.2823C11.3422 17.0717 11.3364 17.0032 11.1113 16.5199C10.8116 15.876 10.1973 15.2871 8.94009 14.4387C8.38022 14.0608 7.64784 13.5534 7.31268 13.3113C6.72112 12.8838 6.2235 12.6518 5.9159 12.6603C5.83331 12.6625 5.60362 12.7222 5.40534 12.7929ZM17.5783 12.7657C17.4236 12.8225 17.0228 13.0675 16.6877 13.3103C16.3525 13.553 15.6152 14.0641 15.0492 14.4461C13.8967 15.2239 13.1579 15.9115 12.8858 16.46C12.7222 16.7899 12.7004 17.0719 12.6755 19.184C12.6509 21.2543 12.666 21.5585 12.7993 21.6919C12.9863 21.8789 13.2194 21.8855 13.4588 21.7107C13.628 21.5872 13.6441 21.4166 13.6877 19.2883L13.7346 16.9986L13.9906 16.6321C14.1314 16.4305 14.5533 16.0445 14.9281 15.7744C16.6991 14.498 17.9205 13.6874 18.0727 13.6874C18.3935 13.6874 18.6564 13.9603 18.6564 14.2933C18.6564 14.5729 18.525 14.7337 17.4541 15.7645C16.7928 16.401 16.2223 17.0015 16.1863 17.099C16.0901 17.3599 16.3603 17.7186 16.6529 17.7186C16.9833 17.7186 19.4447 15.3115 19.6021 14.8344C19.8379 14.1202 19.4904 13.2248 18.8489 12.8931C18.4762 12.7004 17.9109 12.6437 17.5783 12.7657Z"
														fill="white"
													/>
												</svg>