<svg width="85" height="85" viewBox="0 0 85 85" fill="none" xmlns="http://www.w3.org/2000/svg">
<g id="Traced/house_1084070 1" clip-path="url(#clip0_3666_4138)">
<path id="Vector" fill-rule="evenodd" clip-rule="evenodd" d="M22.95 15.2766C17.4905 17.9728 16.5351 18.7718 16.2988 20.8373C16.1347 22.2738 16.6252 23.916 17.5109 24.8952C18.6524 26.1566 18.7663 26.7737 17.9996 27.5404C16.6974 28.8426 16.7255 29.9009 18.0625 29.8966C18.6473 29.8949 24.4078 27.8158 30.8652 25.276L42.6054 20.6588L57.6402 26.6284C65.909 29.9111 73.1536 32.9932 73.7375 33.4777C74.3223 33.9622 74.8 35.0765 74.8 35.9537C74.8 38.0541 76.2408 38.0048 76.9148 35.8823C78.0292 32.371 75.9688 31.0424 59.0716 24.3844L42.4558 17.8368L36.9436 20.0434C30.5541 22.6019 29.75 22.7056 29.75 20.975C29.75 20.2738 30.1249 19.7 30.5839 19.7C31.7373 19.7 32.572 15.9473 31.8946 13.8112C31.1508 11.4695 30.4139 11.5902 22.95 15.2766ZM24.0125 17.5444C19.5645 19.615 17.6987 22.0868 21.4625 20.9232C24.8719 19.8692 29.75 17.1373 29.75 16.283C29.75 15.0658 28.9646 15.2392 24.0125 17.5444ZM24.0125 22.7464C21.4319 23.8752 20.2385 25.65 22.0601 25.65C23.8315 25.65 27.2 23.6109 27.2 22.5382C27.2 21.9126 27.104 21.4315 26.9875 21.4697C26.8711 21.5071 25.5323 22.0826 24.0125 22.7464ZM34 28.3505C15.8525 35.782 11.9264 37.0681 10.8205 35.9393C9.99006 35.0918 10.2918 34.4577 12.2919 32.8495C13.6757 31.736 14.5546 30.5715 14.2435 30.2604C13.124 29.1401 9.27182 30.8418 8.35042 32.864C7.08307 35.6443 9.33811 39.25 12.3446 39.25H14.45V55.825V72.4H11.05C6.95217 72.4 6.58072 70.8896 10.1745 68.8445C13.0985 67.181 14.2231 63.8184 12.858 60.8222C12.331 59.6662 11.9 57.65 11.9 56.3418C11.9 51.7748 6.11406 49.382 3.10676 52.7047C2.33326 53.5598 1.70001 55.4493 1.70001 56.9045C1.70001 58.3589 1.31751 59.786 0.850015 60.075C-0.960486 61.1936 -0.0254855 65.7054 2.55001 68.2809C5.52671 71.2576 5.76216 72.4 3.40001 72.4C2.45566 72.4 1.5 73.792 1.5 74.5C1.5 75.6161 6.80001 74 42.5 74.95C78.2 74 83.3 75.1161 83.3 74C83.3 73.207 82.4976 72.4 81.175 72.4C79.8524 72.4 79.05 71.9181 79.05 71.125C79.05 70.4238 79.6042 69.85 80.2817 69.85C82.1049 69.85 85.85 64.5078 85.85 61.9076C85.85 60.5544 85.4242 59.735 84.7875 59.8625C84.1381 59.9926 83.6162 58.9182 83.4462 57.1C83.0952 53.3566 81.1495 51.15 78.2 51.15C75.3381 51.15 73.4366 53.2504 72.8127 57.1C72.5475 58.7363 72.0783 61.316 71.7698 62.8324C71.2895 65.192 71.5896 65.9451 73.854 68.0608C77.2778 71.2585 77.197 72.4 73.548 72.4H70.5951L70.3605 59.9322C70.1896 50.8865 69.8335 47.3675 69.0625 47.1117C68.244 46.8397 68 49.7008 68 59.5795V72.4H55.25H42.5V61.8787C42.5 53.8938 42.2127 51.1203 41.3092 50.3697C40.5467 49.7373 37.4111 49.4704 32.5967 49.6285L25.075 49.875L24.8379 61.1375L24.6007 72.4H20.7825H16.9652L17.1947 55.1875L17.425 37.975L29.9625 32.9201L42.5 27.8643L55.0375 32.9201L67.575 37.975L67.8419 41.2152C68.1471 44.9153 69.9661 45.1337 70.3936 41.5221C70.5857 39.8994 71.1527 39.25 72.3775 39.25C76.2527 39.25 72.8297 37.1072 62.0186 32.7654C55.7243 30.2375 48.6625 27.4656 46.325 26.6063L42.075 25.0431L34 28.3505ZM35.7 36.275C35.7 37.3018 37.0226 37.55 42.5 37.55C47.9774 37.55 49.3 37.3018 49.3 36.275C49.3 35.2482 47.9774 35 42.5 35C37.0226 35 35.7 35.2482 35.7 36.275ZM46.467 50.017C45.7581 50.725 45.7181 60.7363 46.416 62.5553C46.835 63.6476 48.4109 63.9 54.8165 63.9C63.7543 63.9 63.7152 63.934 63.7381 56.1072C63.7577 49.4738 63.7262 49.45 54.876 49.45C50.5623 49.45 46.7781 49.705 46.467 50.017ZM27.2 62.2V72.4H33.15H39.1V62.2V52H33.15H27.2V62.2ZM48.6073 53.4875C48.7773 54.3843 49.8143 55.0821 51.2202 55.2436C53.0953 55.4604 53.55 55.1697 53.55 53.7561C53.55 52.3621 53.0111 52 50.938 52C48.909 52 48.388 52.3324 48.6073 53.4875ZM56.1 53.7C56.1 54.947 56.667 55.4 58.225 55.4C59.7831 55.4 60.35 54.947 60.35 53.7C60.35 52.4531 59.7831 52 58.225 52C56.667 52 56.1 52.4531 56.1 53.7ZM4.85266 54.2304C4.52116 54.5619 4.25001 56.0316 4.25001 57.497C4.25001 58.9615 3.81906 60.591 3.29206 61.118C2.75146 61.6586 2.57296 63.0271 2.88321 64.263C3.47311 66.6115 5.10001 67.2813 5.10001 65.175C5.10001 64.4738 5.67376 63.9 6.37501 63.9C7.07626 63.9 7.65001 64.6523 7.65001 65.5737C7.65001 66.7161 8.05717 67.0909 8.93266 66.7543C10.5791 66.1228 11.5022 62.4941 10.3641 61.1231C9.88297 60.5425 9.36191 58.7312 9.20721 57.0966C8.99556 54.8688 8.49066 54.063 7.19016 53.8768C6.23561 53.74 5.18416 53.8998 4.85266 54.2304ZM76.2527 54.2304C75.9212 54.5619 75.65 55.9423 75.65 57.2972C75.65 58.653 75.2463 60.5162 74.7533 61.4384C73.7902 63.2362 74.4022 66.45 75.707 66.45C76.143 66.45 76.5 65.8763 76.5 65.175C76.5 64.4738 77.0738 63.9 77.775 63.9C78.4763 63.9 79.05 64.6523 79.05 65.5737C79.05 66.7161 79.4572 67.0909 80.3327 66.7543C81.9791 66.1228 82.9022 62.4941 81.7641 61.1231C81.283 60.5425 80.7619 58.7312 80.6072 57.0966C80.3956 54.8688 79.8907 54.063 78.5902 53.8768C77.6356 53.74 76.5842 53.8998 76.2527 54.2304ZM48.45 59.65C48.45 60.9726 49.017 61.35 51 61.35C52.9831 61.35 53.55 60.9726 53.55 59.65C53.55 58.3274 52.9831 57.95 51 57.95C49.017 57.95 48.45 58.3274 48.45 59.65ZM56.1 59.65C56.1 60.897 56.667 61.35 58.225 61.35C59.7831 61.35 60.35 60.897 60.35 59.65C60.35 58.4031 59.7831 57.95 58.225 57.95C56.667 57.95 56.1 58.4031 56.1 59.65ZM0.197215 63.05C0.197215 64.6863 0.372315 65.3561 0.585665 64.5375C0.799865 63.719 0.799865 62.3811 0.585665 61.5625C0.372315 60.744 0.197215 61.4138 0.197215 63.05ZM35.2291 61.424C34.3536 62.8418 36.3231 64.467 37.4961 63.294C38.477 62.3131 37.8633 60.5 36.55 60.5C36.1378 60.5 35.5436 60.9157 35.2291 61.424Z" fill="#309C54"/>
</g>
<defs>
<clipPath id="clip0_3666_4138">
<rect width="85" height="85" fill="white"/>
</clipPath>
</defs>
</svg>
