<svg xmlns="http://www.w3.org/2000/svg" width="22" height="22" viewBox="0 0 22 22" fill="none">
<path d="M1.375 13.75V5.5C1.375 4.77065 1.66473 4.07118 2.18046 3.55546C2.69618 3.03973 3.39565 2.75 4.125 2.75H15.125C15.8543 2.75 16.5538 3.03973 17.0695 3.55546C17.5853 4.07118 17.875 4.77065 17.875 5.5V13.75C17.875 14.4793 17.5853 15.1788 17.0695 15.6945C16.5538 16.2103 15.8543 16.5 15.125 16.5H4.125C3.39565 16.5 2.69618 16.2103 2.18046 15.6945C1.66473 15.1788 1.375 14.4793 1.375 13.75ZM15.125 4.125H4.125C3.76033 4.125 3.41059 4.26987 3.15273 4.52773C2.89487 4.78559 2.75 5.13533 2.75 5.5V6.5175L9.625 10.219L16.5 6.5175V5.5C16.5 5.13533 16.3551 4.78559 16.0973 4.52773C15.8394 4.26987 15.4897 4.125 15.125 4.125ZM9.29913 11.605L2.75 8.0795V13.75C2.75 14.1147 2.89487 14.4644 3.15273 14.7223C3.41059 14.9801 3.76033 15.125 4.125 15.125H15.125C15.4897 15.125 15.8394 14.9801 16.0973 14.7223C16.3551 14.4644 16.5 14.1147 16.5 13.75V8.0795L9.95088 11.605C9.85072 11.6589 9.73875 11.6871 9.625 11.6871C9.51125 11.6871 9.39928 11.6589 9.29913 11.605ZM6.875 19.25C6.39229 19.25 5.91808 19.1229 5.50004 18.8816C5.082 18.6402 4.73486 18.293 4.4935 17.875H15.125C16.219 17.875 17.2682 17.4404 18.0418 16.6668C18.8154 15.8932 19.25 14.844 19.25 13.75V5.8685C19.668 6.10986 20.0152 6.457 20.2566 6.87504C20.4979 7.29308 20.625 7.76729 20.625 8.25V13.75C20.625 15.2087 20.0455 16.6076 19.0141 17.6391C17.9826 18.6705 16.5837 19.25 15.125 19.25H6.875Z" fill="white"/>
</svg>