<svg
													xmlns="http://www.w3.org/2000/svg"
													width="22"
													height="22"
													viewBox="0 0 22 22"
													fill="none">
													<g clip-path="url(#clip0_6995_2631)">
														<path
															d="M19.8671 17.0072C19.2778 16.4819 18.7619 15.8796 18.3332 15.2167C17.8652 14.3016 17.5848 13.3022 17.5082 12.2772V9.25833C17.5123 7.64842 16.9283 6.09245 15.866 4.88276C14.8037 3.67306 13.3363 2.89291 11.7393 2.68888V1.90055C11.7393 1.68418 11.6534 1.47667 11.5004 1.32367C11.3474 1.17067 11.1399 1.08472 10.9235 1.08472C10.7071 1.08472 10.4996 1.17067 10.3466 1.32367C10.1936 1.47667 10.1077 1.68418 10.1077 1.90055V2.70111C8.52504 2.91984 7.07531 3.70471 6.02698 4.91034C4.97866 6.11597 4.40277 7.66067 4.40599 9.25833V12.2772C4.32945 13.3022 4.04897 14.3016 3.58099 15.2167C3.15986 15.8781 2.65222 16.4803 2.07155 17.0072C2.00636 17.0645 1.95412 17.135 1.91829 17.214C1.88247 17.293 1.86388 17.3788 1.86377 17.4655V18.2967C1.86377 18.4587 1.92815 18.6142 2.04276 18.7288C2.15737 18.8434 2.3128 18.9078 2.47488 18.9078H19.4638C19.6258 18.9078 19.7813 18.8434 19.8959 18.7288C20.0105 18.6142 20.0749 18.4587 20.0749 18.2967V17.4655C20.0748 17.3788 20.0562 17.293 20.0204 17.214C19.9845 17.135 19.9323 17.0645 19.8671 17.0072ZM3.13488 17.6856C3.70346 17.1363 4.20408 16.5208 4.62599 15.8522C5.21548 14.747 5.55942 13.5276 5.63433 12.2772V9.25833C5.61009 8.54213 5.73022 7.82837 5.98757 7.15957C6.24493 6.49076 6.63423 5.88058 7.13231 5.36537C7.63039 4.85015 8.22705 4.44043 8.88677 4.16061C9.54649 3.88078 10.2558 3.73658 10.9724 3.73658C11.689 3.73658 12.3983 3.88078 13.058 4.16061C13.7177 4.44043 14.3144 4.85015 14.8125 5.36537C15.3105 5.88058 15.6998 6.49076 15.9572 7.15957C16.2145 7.82837 16.3347 8.54213 16.3104 9.25833V12.2772C16.3853 13.5276 16.7293 14.747 17.3188 15.8522C17.7407 16.5208 18.2413 17.1363 18.8099 17.6856H3.13488Z"
															fill="white"
														/>
														<path
															d="M11.0001 20.949C11.385 20.9401 11.7545 20.7954 12.043 20.5404C12.3315 20.2854 12.5206 19.9366 12.5767 19.5557H9.3623C9.42004 19.947 9.61795 20.304 9.91921 20.5603C10.2205 20.8166 10.6046 20.9547 11.0001 20.949Z"
															fill="white"
														/>
													</g>
													<defs>
														<clipPath id="clip0_6995_2631">
															<rect width="22" height="22" fill="white" />
														</clipPath>
													</defs>
												</svg>