<svg xmlns="http://www.w3.org/2000/svg" width="20" height="19" viewBox="0 0 20 19" fill="none">
<g clip-path="url(#clip0_7033_13988)">
<path d="M18.0249 14.6878C17.516 14.2341 17.0704 13.7139 16.7002 13.1414C16.296 12.3511 16.0538 11.488 15.9877 10.6028V7.99555C15.9912 6.60518 15.4868 5.26138 14.5694 4.21665C13.652 3.17191 12.3846 2.49814 11.0055 2.32194V1.64111C11.0055 1.45424 10.9312 1.27503 10.7991 1.14289C10.6669 1.01076 10.4877 0.936523 10.3009 0.936523C10.114 0.936523 9.93479 1.01076 9.80265 1.14289C9.67052 1.27503 9.59629 1.45424 9.59629 1.64111V2.3325C8.22948 2.5214 6.97744 3.19924 6.07206 4.24047C5.16669 5.28169 4.66934 6.61575 4.67212 7.99555V10.6028C4.60602 11.488 4.36378 12.3511 3.95962 13.1414C3.59592 13.7126 3.1575 14.2327 2.65601 14.6878C2.59971 14.7372 2.55459 14.7981 2.52365 14.8664C2.49271 14.9346 2.47666 15.0087 2.47656 15.0836V15.8014C2.47656 15.9414 2.53217 16.0756 2.63115 16.1746C2.73012 16.2736 2.86437 16.3292 3.00434 16.3292H17.6766C17.8165 16.3292 17.9508 16.2736 18.0498 16.1746C18.1487 16.0756 18.2043 15.9414 18.2043 15.8014V15.0836C18.2042 15.0087 18.1882 14.9346 18.1573 14.8664C18.1263 14.7981 18.0812 14.7372 18.0249 14.6878ZM3.57434 15.2736C4.06539 14.7992 4.49774 14.2677 4.86212 13.6903C5.37122 12.7358 5.66826 11.6826 5.73295 10.6028V7.99555C5.71202 7.37701 5.81577 6.76059 6.03803 6.18299C6.26029 5.60538 6.59651 5.07841 7.02667 4.63345C7.45682 4.18849 7.97212 3.83464 8.54188 3.59297C9.11164 3.35131 9.7242 3.22677 10.3431 3.22677C10.962 3.22677 11.5745 3.35131 12.1443 3.59297C12.7141 3.83464 13.2294 4.18849 13.6595 4.63345C14.0897 5.07841 14.4259 5.60538 14.6481 6.18299C14.8704 6.76059 14.9742 7.37701 14.9532 7.99555V10.6028C15.0179 11.6826 15.315 12.7358 15.8241 13.6903C16.1884 14.2677 16.6208 14.7992 17.1118 15.2736H3.57434Z" fill="#309C54"/>
<path d="M10.3676 18.092C10.7 18.0843 11.0191 17.9594 11.2683 17.7391C11.5175 17.5189 11.6807 17.2177 11.7292 16.8887H8.95312C9.00299 17.2266 9.17391 17.5349 9.43409 17.7563C9.69427 17.9776 10.026 18.0969 10.3676 18.092Z" fill="#309C54"/>
</g>
<defs>
<clipPath id="clip0_7033_13988">
<rect width="19" height="19" fill="white" transform="translate(0.867188)"/>
</clipPath>
</defs>
</svg>