<svg
													xmlns="http://www.w3.org/2000/svg"
													width="24"
													height="24"
													viewBox="0 0 24 24"
													fill="none">
													<path
														fill-rule="evenodd"
														clip-rule="evenodd"
														d="M11.6007 3.6965C11.0754 3.884 10.3125 4.51316 9.64753 5.30732C9.32231 5.69572 8.97872 6.05497 8.88403 6.10569C8.58778 6.26422 6.55359 6.65469 5.69531 6.71778C4.78912 6.78444 4.77759 6.7761 4.9785 6.19991C5.18934 5.59494 4.51003 5.1426 4.17 5.6616C3.98109 5.94997 1.03125 14.7892 1.03125 15.0671C1.03125 15.1875 1.13119 15.3424 1.26562 15.4305C1.47956 15.5707 1.51969 15.5713 1.72528 15.4364C1.91119 15.3147 2.17069 14.6285 3.20859 11.515L4.46653 7.74107L5.39728 7.72035C6.2175 7.70206 7.29919 7.5561 8.08509 7.35753L8.34197 7.29266L8.13769 7.74791C7.73513 8.6451 7.90959 9.46644 8.60381 9.94185C8.89988 10.1446 9.04097 10.1719 9.79219 10.1719C10.563 10.1719 10.7028 10.1431 11.252 9.87107C11.5861 9.7056 12.0679 9.39688 12.3226 9.185C12.5774 8.97313 12.9003 8.71832 13.0401 8.61875L13.2943 8.43772L14.1706 9.10925C17.1195 11.3693 18.8338 13.2673 18.8417 14.2807C18.8445 14.6364 18.4087 15.0613 17.9536 15.1468L17.5977 15.2135L16.0096 13.5599C14.7168 12.2138 14.3741 11.9063 14.1669 11.9063C14.027 11.9063 13.8619 11.9569 13.8 12.0188C13.5147 12.3041 13.6833 12.5639 15.1641 14.1218C15.9761 14.9761 16.6553 15.7397 16.6733 15.8187C16.7594 16.1967 15.98 16.875 15.4596 16.875C15.2899 16.875 14.7944 16.4365 13.5 15.1407C11.7327 13.3714 11.491 13.2028 11.175 13.5188C10.8602 13.8336 11.029 14.078 12.75 15.7969C13.6781 16.724 14.4375 17.5324 14.4375 17.5934C14.4375 17.8423 13.9345 18.2806 13.4337 18.468L12.9065 18.6653L11.2987 17.067C10.4145 16.188 9.61987 15.4688 9.53297 15.4688C9.32953 15.4688 9 15.7978 9 16.0008C9 16.0872 9.61172 16.7744 10.3594 17.5282C11.107 18.2818 11.7188 18.9232 11.7188 18.9535C11.7188 19.084 11.0743 19.2584 10.6168 19.2518C9.44756 19.2349 7.85878 18.0059 6.33187 15.9375C5.50641 14.8192 5.38397 14.7002 4.73438 14.3853C4.39313 14.2199 4.10681 14.1579 3.68184 14.1572C3.16209 14.1564 3.08119 14.182 2.9445 14.3907C2.80228 14.6078 2.80228 14.6423 2.9445 14.8594C3.02897 14.9883 3.12872 15.099 3.16622 15.1054C3.20372 15.1118 3.43369 15.1308 3.67725 15.1477C4.434 15.2 4.63078 15.3505 5.56219 16.5887C6.84169 18.2898 7.98881 19.3468 9.1545 19.8989C9.73987 20.1762 9.87591 20.2031 10.6875 20.2018C11.4642 20.2005 11.638 20.169 12.0469 19.9553C12.3047 19.8205 12.7055 19.679 12.9375 19.6408C13.9875 19.4681 15.0108 18.8404 15.2725 18.2086C15.3562 18.0068 15.4942 17.919 15.9298 17.7907C16.6188 17.5876 17.2256 17.1327 17.4781 16.6297C17.6512 16.2848 17.7244 16.2316 18.1662 16.1303C19.0494 15.9277 19.875 15.0605 19.875 14.3355C19.875 14.0973 19.9184 14.0749 20.8135 13.8505C21.3297 13.721 21.7672 13.642 21.7856 13.6748C21.8041 13.7076 21.8707 13.8941 21.9336 14.0893C21.9965 14.2844 22.1497 14.5108 22.274 14.5922C22.4805 14.7276 22.5202 14.7271 22.7344 14.5868C22.8688 14.4987 22.9688 14.3438 22.9688 14.2233C22.9688 13.9454 20.0189 5.10622 19.83 4.81785C19.6346 4.51972 19.2692 4.52338 19.0714 4.82525C18.9252 5.04838 18.9658 5.19528 20.1837 8.8476L21.4477 12.6383L20.4973 12.8771C19.9746 13.0084 19.5341 13.0797 19.5185 13.0353C19.2833 12.3675 17.2109 10.2331 15.4219 8.81619C14.7516 8.28528 14.1896 7.83932 14.1732 7.82525C14.1567 7.8111 14.1972 7.71313 14.2632 7.60747C14.4552 7.29997 14.2691 6.89703 13.9202 6.86507C13.688 6.84369 13.442 7.00007 12.4688 7.78738C11.0469 8.9375 10.5721 9.18538 9.78797 9.1866C9.35269 9.18735 9.17962 9.14666 9.06141 9.01607C8.85516 8.78825 8.86519 8.62813 9.12553 7.99035C9.45197 7.19075 9.98353 6.41038 10.7243 5.64313C11.7538 4.57691 11.8203 4.5486 13.2653 4.55797C14.6838 4.56725 15.5914 4.73703 16.7933 5.21807C17.2438 5.39844 17.7094 5.53213 17.8278 5.51516C18.0929 5.47728 18.277 5.03956 18.1288 4.79975C17.9807 4.56013 16.4042 3.95975 15.3696 3.74891C14.2693 3.52475 12.1642 3.49541 11.6007 3.6965Z"
														fill="white"
													/>
												</svg>