<svg width="19" height="19" viewBox="0 0 19 19" fill="none" xmlns="http://www.w3.org/2000/svg">
<g id="ic:baseline-phone">
<path id="Vector" d="M5.24083 8.54208C6.38083 10.7825 8.2175 12.6112 10.4579 13.7592L12.1996 12.0175C12.4133 11.8038 12.73 11.7325 13.0071 11.8275C13.8938 12.1204 14.8517 12.2788 15.8333 12.2788C16.2688 12.2788 16.625 12.635 16.625 13.0704V15.8333C16.625 16.2688 16.2688 16.625 15.8333 16.625C8.39958 16.625 2.375 10.6004 2.375 3.16667C2.375 2.73125 2.73125 2.375 3.16667 2.375H5.9375C6.37292 2.375 6.72917 2.73125 6.72917 3.16667C6.72917 4.15625 6.8875 5.10625 7.18042 5.99292C7.2675 6.27 7.20417 6.57875 6.9825 6.80042L5.24083 8.54208Z" fill="#309C54"/>
</g>
</svg>
