<svg
													xmlns="http://www.w3.org/2000/svg"
													width="24"
													height="24"
													viewBox="0 0 24 24"
													fill="none">
													<path
														d="M8.27506 4.06991C7.47997 4.06991 7.47997 2.89948 8.27506 2.89948H10.0605V0.876375C10.0605 0.553222 10.3313 0.291016 10.665 0.291016H13.3357C13.6694 0.291016 13.9399 0.553222 13.9399 0.876375V2.89948H15.7254C16.5205 2.89948 16.5205 4.06991 15.7254 4.06991C13.242 4.06991 10.7584 4.06991 8.27506 4.06991ZM11.2692 2.89948H12.7312V1.46145H11.2692V2.89948ZM7.81662 13.0127C7.02153 13.0127 7.02153 11.8423 7.81662 11.8423H16.1838C16.9789 11.8423 16.9789 13.0127 16.1838 13.0127H7.81662ZM7.81662 21.1732C7.02153 21.1732 7.02153 20.0027 7.81662 20.0027H16.1838C16.9789 20.0027 16.9789 21.1732 16.1838 21.1732H7.81662ZM7.81662 15.7329C7.02153 15.7329 7.02153 14.5624 7.81662 14.5624H16.1838C16.9789 14.5624 16.9789 15.7329 16.1838 15.7329H7.81662ZM7.81662 18.453C7.02153 18.453 7.02153 17.2826 7.81662 17.2826H16.1838C16.9789 17.2826 16.9789 18.453 16.1838 18.453H7.81662ZM12.0002 5.80785C13.574 5.80785 14.8501 7.04348 14.8501 8.5674C14.8501 10.0913 13.574 11.3269 12.0002 11.3269C10.4264 11.3269 9.15036 10.0913 9.15036 8.5674C9.15036 7.04348 10.4264 5.80785 12.0002 5.80785ZM12.0002 6.97828C11.0939 6.97828 10.3591 7.68978 10.3591 8.5674C10.3591 9.44501 11.0939 10.1565 12.0002 10.1565C12.9066 10.1565 13.6413 9.44501 13.6413 8.5674C13.6413 7.68978 12.9066 6.97828 12.0002 6.97828ZM17.9502 4.06991C17.1551 4.06991 17.1551 2.89948 17.9502 2.89948H20.1233C20.457 2.89948 20.7275 3.1614 20.7275 3.48455V23.1234C20.7275 23.4468 20.457 23.7088 20.1233 23.7088H3.87717C3.54344 23.7088 3.27295 23.4468 3.27295 23.1234V3.48455C3.27295 3.1614 3.54344 2.89948 3.87717 2.89948H6.05021C6.8453 2.89948 6.8453 4.06991 6.05021 4.06991H4.48169V22.5383H19.5188V4.06991H17.9502Z"
														fill="white"
													/>
												</svg>