<svg width="20" height="20" viewBox="0 0 20 20" fill="none" xmlns="http://www.w3.org/2000/svg">
<g clip-path="url(#clip0_1599_1693)">
<path d="M15.2944 13.3333C14.9202 13.3348 14.5502 13.4118 14.2065 13.5598C13.8628 13.7077 13.5526 13.9236 13.2944 14.1944L6.5222 10.8056C6.68879 10.3004 6.68879 9.75514 6.5222 9.25L13.3055 5.8C13.7914 6.31202 14.4503 6.62509 15.1541 6.67837C15.858 6.73165 16.5565 6.52132 17.1139 6.08828C17.6713 5.65523 18.0478 5.0304 18.1702 4.33524C18.2926 3.64007 18.1521 2.92423 17.7761 2.32685C17.4001 1.72948 16.8155 1.29324 16.1357 1.10293C15.456 0.912618 14.7298 0.981833 14.0983 1.29712C13.4668 1.61241 12.975 2.15124 12.7187 2.8089C12.4623 3.46655 12.4596 4.19603 12.7111 4.85556L5.99442 8.27223C5.63167 7.82859 5.14059 7.508 4.58849 7.35441C4.03638 7.20082 3.45029 7.22174 2.91055 7.41432C2.37081 7.60689 1.90384 7.96169 1.57365 8.43007C1.24347 8.89845 1.06622 9.45749 1.06622 10.0306C1.06622 10.6036 1.24347 11.1627 1.57365 11.6311C1.90384 12.0994 2.37081 12.4542 2.91055 12.6468C3.45029 12.8394 4.03638 12.8603 4.58849 12.7067C5.14059 12.5531 5.63167 12.2325 5.99442 11.7889L12.6944 15.1611C12.5812 15.4651 12.5229 15.7867 12.5222 16.1111C12.5222 16.6605 12.6851 17.1976 12.9903 17.6544C13.2956 18.1112 13.7294 18.4672 14.237 18.6774C14.7445 18.8877 15.3031 18.9427 15.8419 18.8355C16.3807 18.7283 16.8757 18.4638 17.2642 18.0753C17.6526 17.6868 17.9172 17.1919 18.0244 16.653C18.1316 16.1142 18.0766 15.5557 17.8663 15.0481C17.6561 14.5405 17.3 14.1067 16.8432 13.8015C16.3864 13.4963 15.8494 13.3333 15.3 13.3333H15.2944ZM15.2944 2.22223C15.6241 2.22223 15.9463 2.31997 16.2204 2.50311C16.4945 2.68625 16.7081 2.94654 16.8342 3.25109C16.9604 3.55563 16.9934 3.89074 16.9291 4.21404C16.8648 4.53734 16.706 4.83432 16.4729 5.0674C16.2398 5.30049 15.9429 5.45923 15.6196 5.52354C15.2963 5.58784 14.9612 5.55484 14.6566 5.42869C14.3521 5.30255 14.0918 5.08892 13.9086 4.81484C13.7255 4.54076 13.6278 4.21853 13.6278 3.88889C13.6278 3.44686 13.8034 3.02294 14.1159 2.71038C14.4285 2.39782 14.8524 2.22223 15.2944 2.22223ZM3.88887 11.6667C3.55923 11.6667 3.237 11.5689 2.96292 11.3858C2.68883 11.2027 2.47521 10.9424 2.34907 10.6378C2.22292 10.3333 2.18992 9.99816 2.25423 9.67485C2.31853 9.35155 2.47727 9.05458 2.71036 8.82149C2.94344 8.58841 3.24041 8.42967 3.56372 8.36536C3.88702 8.30105 4.22213 8.33406 4.52667 8.46021C4.83122 8.58635 5.09151 8.79997 5.27465 9.07405C5.45779 9.34814 5.55553 9.67037 5.55553 10C5.55553 10.442 5.37994 10.866 5.06738 11.1785C4.75482 11.4911 4.33089 11.6667 3.88887 11.6667ZM15.2944 17.7778C14.9648 17.7778 14.6426 17.68 14.3685 17.4969C14.0944 17.3138 13.8808 17.0535 13.7546 16.7489C13.6285 16.4444 13.5955 16.1093 13.6598 15.786C13.7241 15.4627 13.8828 15.1657 14.1159 14.9326C14.349 14.6995 14.646 14.5408 14.9693 14.4765C15.2926 14.4122 15.6277 14.4452 15.9322 14.5713C16.2368 14.6975 16.4971 14.9111 16.6802 15.1852C16.8633 15.4592 16.9611 15.7815 16.9611 16.1111C16.9611 16.5531 16.7855 16.9771 16.4729 17.2896C16.1604 17.6022 15.7364 17.7778 15.2944 17.7778Z" fill="#303030"/>
</g>
<defs>
<clipPath id="clip0_1599_1693">
<rect width="20" height="20" fill="white"/>
</clipPath>
</defs>
</svg> 