<svg width="15" height="14" viewBox="0 0 15 14" fill="none" xmlns="http://www.w3.org/2000/svg">
<g id="octicon:search-24">
<path id="Vector" d="M6.04136 1.1665C6.956 1.1664 7.85173 1.42695 8.62362 1.91762C9.39551 2.40829 10.0116 3.10877 10.3997 3.93699C10.7878 4.76522 10.9318 5.68688 10.8149 6.59403C10.698 7.50117 10.3251 8.35622 9.73969 9.059L13.0589 12.3782C13.1164 12.4316 13.1585 12.4997 13.1807 12.5751C13.2029 12.6505 13.2043 12.7304 13.1849 12.8066C13.1654 12.8827 13.1257 12.9522 13.0701 13.0077C13.0145 13.0632 12.9449 13.1027 12.8687 13.1219C12.7926 13.1414 12.7127 13.1401 12.6374 13.118C12.562 13.0959 12.494 13.054 12.4405 12.9965L9.12136 9.67734C8.52743 10.1719 7.82313 10.5161 7.06804 10.6809C6.31295 10.8456 5.52928 10.8261 4.78332 10.624C4.03736 10.4219 3.35106 10.043 2.78246 9.51957C2.21387 8.99611 1.77971 8.3434 1.51671 7.61667C1.25371 6.88993 1.1696 6.11054 1.27151 5.34443C1.37342 4.57832 1.65834 3.84802 2.10218 3.21531C2.54601 2.5826 3.1357 2.06608 3.82137 1.70946C4.50703 1.35284 5.2685 1.16661 6.04136 1.1665ZM2.10386 5.979C2.10386 6.49608 2.2057 7.0081 2.40358 7.48582C2.60146 7.96354 2.89149 8.39761 3.25712 8.76324C3.62276 9.12887 4.05682 9.4189 4.53454 9.61678C5.01226 9.81466 5.52428 9.9165 6.04136 9.9165C6.55844 9.9165 7.07045 9.81466 7.54817 9.61678C8.02589 9.4189 8.45996 9.12887 8.82559 8.76324C9.19122 8.39761 9.48126 7.96354 9.67913 7.48582C9.87701 7.0081 9.97886 6.49608 9.97886 5.979C9.97886 4.93471 9.56402 3.9332 8.82559 3.19477C8.08717 2.45635 7.08565 2.0415 6.04136 2.0415C4.99707 2.0415 3.99555 2.45635 3.25712 3.19477C2.5187 3.9332 2.10386 4.93471 2.10386 5.979Z" fill="white"/>
</g>
</svg>
