<svg xmlns="http://www.w3.org/2000/svg" width="24" height="24" viewBox="0 0 24 24" fill="none">
<path d="M12 14C13.1046 14 14 13.1046 14 12C14 10.8954 13.1046 10 12 10C10.8954 10 10 10.8954 10 12C10 13.1046 10.8954 14 12 14Z" stroke="#309C54"/>
<path d="M5.3988 5.87999L5.6488 5.44599C5.55065 5.38924 5.43613 5.36754 5.32402 5.38443C5.21191 5.40133 5.10887 5.45583 5.0318 5.53899L5.3988 5.87999ZM3.3998 9.34399L2.9218 9.19599C2.88853 9.3042 2.89297 9.4205 2.93439 9.52586C2.9758 9.63122 3.05175 9.7194 3.1498 9.77599L3.3998 9.34399ZM3.3978 14.655L3.1478 14.222C3.04954 14.2786 2.97345 14.367 2.93202 14.4725C2.89059 14.5781 2.88628 14.6946 2.9198 14.803L3.3978 14.655ZM5.3978 18.119L5.0308 18.459C5.10787 18.5421 5.21091 18.5966 5.32302 18.6135C5.43513 18.6304 5.54965 18.6087 5.6478 18.552L5.3978 18.119ZM9.9978 20.774H9.4978C9.49775 20.8875 9.53633 20.9977 9.60721 21.0864C9.67809 21.1751 9.77705 21.237 9.8878 21.262L9.9978 20.774ZM13.9988 20.776L14.1098 21.264C14.2204 21.2388 14.3191 21.1768 14.3898 21.0881C14.4605 20.9995 14.4989 20.8894 14.4988 20.776H13.9998H13.9988ZM18.5998 18.12L18.3498 18.553C18.448 18.6097 18.5625 18.6314 18.6746 18.6145C18.7867 18.5976 18.8897 18.5431 18.9668 18.46L18.5998 18.12ZM20.5978 14.654L21.0758 14.802C21.1091 14.6938 21.1046 14.5775 21.0632 14.4721C21.0218 14.3668 20.9459 14.2786 20.8478 14.222L20.5978 14.654ZM20.5998 9.34299L20.8498 9.77599C20.9481 9.71936 21.0242 9.63101 21.0656 9.52543C21.107 9.41986 21.1113 9.30334 21.0778 9.19499L20.5998 9.34299ZM18.5998 5.87799L18.9668 5.53799C18.8897 5.45483 18.7867 5.40033 18.6746 5.38343C18.5625 5.36654 18.448 5.38824 18.3498 5.44499L18.5998 5.87799ZM13.9998 3.22499H14.4998C14.4997 3.11176 14.4611 3.00193 14.3905 2.91346C14.3198 2.82499 14.2212 2.76313 14.1108 2.73799L13.9998 3.22499ZM9.9998 3.22299L9.8888 2.73499C9.77805 2.75997 9.67909 2.8219 9.60821 2.91059C9.53733 2.99928 9.49874 3.10945 9.4988 3.22299H9.9988H9.9998ZM3.8778 9.49199C4.25299 8.27311 4.89796 7.15442 5.7648 6.21899L5.0318 5.53899C4.06266 6.58437 3.34147 7.83366 2.9218 9.19599L3.8778 9.49199ZM4.6378 16.25C4.32 15.6995 4.06475 15.1152 3.8768 14.508L2.9208 14.804C3.13147 15.4824 3.41724 16.1351 3.7728 16.75L4.6378 16.25ZM5.7658 17.78C5.33432 17.3136 4.95531 16.8004 4.6378 16.25L3.7728 16.75C4.12744 17.3651 4.54973 17.9387 5.0318 18.46L5.7658 17.78ZM13.8888 20.29C12.6453 20.5731 11.354 20.5724 10.1108 20.288L9.8888 21.262C11.2781 21.58 12.7211 21.581 14.1108 21.265L13.8888 20.29ZM20.1218 14.508C19.7466 15.7269 19.1016 16.8456 18.2348 17.781L18.9678 18.461C19.9369 17.4156 20.6581 16.1653 21.0778 14.803L20.1218 14.508ZM19.3618 7.74999C19.6858 8.31299 19.9388 8.89699 20.1238 9.49199L21.0788 9.19599C20.8682 8.5176 20.5824 7.86487 20.2268 7.24999L19.3618 7.74999ZM18.2338 6.21999C18.6656 6.68615 19.0446 7.19938 19.3618 7.74999L20.2268 7.24999C19.8722 6.63484 19.4499 6.06128 18.9678 5.53999L18.2338 6.21999ZM10.1108 3.70999C11.3543 3.42689 12.6456 3.42758 13.8888 3.71199L14.1108 2.73799C12.7215 2.41998 11.2785 2.41895 9.8888 2.73499L10.1108 3.70999ZM10.4998 5.07199V3.22199H9.4998V5.07199H10.4998ZM7.2498 6.36999L5.6488 5.44599L5.1488 6.31099L6.7488 7.23599L7.2498 6.36999ZM4.7498 13.298L3.1478 14.222L3.6488 15.088L5.2488 14.164L4.7498 13.298ZM5.2498 9.83399L3.6498 8.91099L3.1498 9.77699L4.7498 10.7L5.2498 9.83399ZM10.4998 20.774V18.927H9.4998V20.774H10.4998ZM6.7498 16.762L5.1488 17.686L5.6488 18.552L7.2488 17.628L6.7498 16.762ZM18.8508 17.687L17.2498 16.762L16.7498 17.629L18.3498 18.553L18.8508 17.687ZM14.4998 20.777V18.927H13.4998V20.777H14.4998ZM20.3508 8.90999L18.7498 9.83399L19.2498 10.7L20.8498 9.77599L20.3508 8.90999ZM20.8488 14.221L19.2498 13.3L18.7498 14.166L20.3498 15.089L20.8498 14.223L20.8488 14.221ZM14.4998 5.07199V3.22499H13.4998V5.07199H14.4998ZM18.3508 5.44599L16.7498 6.37099L17.2498 7.23699L18.8508 6.31199L18.3508 5.44599ZM13.4998 5.07199C13.4998 6.99599 15.5828 8.19899 17.2498 7.23699L16.7498 6.37099C16.5217 6.50268 16.2629 6.57199 15.9996 6.57195C15.7362 6.57191 15.4774 6.50252 15.2494 6.37075C15.0213 6.23898 14.832 6.04949 14.7004 5.82133C14.5688 5.59316 14.4996 5.33538 14.4998 5.07199H13.4998ZM18.7498 9.83499C17.0828 10.797 17.0828 13.203 18.7498 14.165L19.2498 13.299C19.0218 13.1673 18.8325 12.978 18.7008 12.75C18.5692 12.5219 18.4999 12.2633 18.4999 12C18.4999 11.7367 18.5692 11.478 18.7008 11.25C18.8325 11.022 19.0218 10.8326 19.2498 10.701L18.7498 9.83499ZM17.2498 16.763C15.5828 15.801 13.4998 17.002 13.4998 18.927H14.4998C14.4998 18.6637 14.5691 18.406 14.7008 18.178C14.8324 17.95 15.0218 17.7606 15.2498 17.629C15.4778 17.4973 15.7365 17.428 15.9998 17.428C16.2631 17.428 16.5218 17.4973 16.7498 17.629L17.2498 16.763ZM10.4998 18.927C10.4998 17.003 8.4168 15.801 6.7498 16.763L7.2498 17.629C7.4779 17.4973 7.73666 17.428 8.00004 17.428C8.26343 17.4281 8.52216 17.4975 8.75022 17.6292C8.97828 17.761 9.16762 17.9505 9.2992 18.1787C9.43079 18.4068 9.49997 18.6656 9.4998 18.929H10.4998V18.927ZM5.2498 14.165C6.9168 13.203 6.9168 10.797 5.2498 9.83499L4.7498 10.701C5.7498 11.278 5.7498 12.72 4.7498 13.298L5.2498 14.165ZM9.4998 5.07199C9.49962 5.33521 9.43018 5.59374 9.29845 5.82163C9.16672 6.04951 8.97735 6.23872 8.74935 6.37025C8.52135 6.50178 8.26276 6.571 7.99954 6.57095C7.73633 6.57091 7.47775 6.5016 7.2498 6.36999L6.7498 7.23699C8.4168 8.19899 10.4998 6.99699 10.4998 5.07199H9.4998Z" fill="#309C54"/>
</svg>