<svg width="310" height="443" viewBox="0 0 310 443" fill="none" xmlns="http://www.w3.org/2000/svg">
<path d="M200.357 437C77.254 437 6.98069 432.5 6.98069 357.5C6.98069 286.5 116.129 286.5 248.203 286.5C319.971 286.5 353.363 158 203.347 158C53.3312 158 0.999969 153.5 0.999969 87.5C0.999969 55.5 34.3923 32.5 121.611 36" stroke="#309C54" stroke-width="1.5" stroke-linecap="round" stroke-dasharray="8 8"/>
<g clip-path="url(#clip0_4627_20713)">
<path fill-rule="evenodd" clip-rule="evenodd" d="M91.8833 1.15626C90.598 2.28809 88.3084 6.18086 88.3084 7.23351C88.3084 8.46746 89.0501 7.74448 90.3708 5.22367C91.8099 2.47568 93.0815 1.16921 94.3163 1.16921C97.394 1.16921 101.837 12.1479 101.527 18.9888C101.416 21.4337 101.244 22.0476 100.293 23.397C98.9829 25.2558 97.7806 26.206 96.1456 26.6744L94.947 27.0174V23.7825C94.947 20.6712 94.9894 20.5069 96.0534 19.4842C97.7156 17.8866 97.3048 16.5331 95.6215 18.0616C94.9817 18.6425 94.947 18.614 94.947 17.5066C94.947 16.7155 94.7685 16.3392 94.3938 16.3392C93.9571 16.3392 93.8406 16.8602 93.8406 18.8086V21.2783L92.9871 20.4736C92.1735 19.707 91.2589 19.4043 91.2589 19.9019C91.2589 20.03 91.8482 20.7888 92.5682 21.5884C93.7635 22.9156 93.8678 23.2101 93.7668 24.9632C93.6698 26.6507 93.5665 26.869 92.9185 26.7592C90.352 26.3248 87.9484 23.9209 87.1592 20.9997C86.6624 19.1619 86.9534 15.6558 87.9064 11.991C88.3357 10.3397 88.467 9.22226 88.2472 9.08647C87.7083 8.75199 87.5416 9.05835 86.7775 11.7901C85.6899 15.678 85.497 19.5238 86.2722 21.8655C87.1319 24.4626 89.3783 26.7773 91.9043 27.6694L93.8406 28.3527V32.1512V35.9492L89.8758 36.075C85.4962 36.075 85.7267 35.8438 85.7267 36.5075C85.7267 36.7688 87.8515 36.6197 104.167 36.5349C120.292 36.4517 122.147 36.5349 122.89 36.3192C123.219 36.2236 122.56 36.0099 120.414 36.0099H117.813L117.831 32.3721L117.848 28.7342L119.375 27.9813C121.523 26.9223 122.721 24.6265 122.513 21.9665C122.342 19.7806 121.559 18.4723 119.623 17.138C118.878 16.6237 118.414 16.0221 118.483 15.658C118.926 13.3141 118.24 12.6067 117.504 14.6491C117.235 15.3957 116.527 16.2489 115.807 16.6959C115.127 17.1173 114.468 17.8732 114.342 18.3761C113.874 20.2457 111.067 20.9616 109.458 19.6219C108.492 18.8175 108.874 17.0156 110.327 15.523C111.259 14.5651 111.572 14.0001 111.314 13.7411C111.056 13.4821 110.722 13.599 110.26 14.1103C109.226 15.257 108.962 15.0265 108.962 12.9785C108.962 10.8362 108.124 10.5387 107.922 12.6089C107.809 13.7603 107.772 13.7877 107.119 13.1957C106.743 12.8538 106.138 12.6318 105.775 12.7021C105.219 12.8094 105.331 13.071 106.484 14.3516C107.645 15.6407 107.855 16.1331 107.855 17.5654C107.855 19.4047 106.994 20.4092 105.417 20.4092C103.838 20.4092 103.093 19.3007 102.684 16.3462C102.474 14.8237 102.076 12.7117 101.801 11.6524C101.375 10.0159 101.376 9.69697 101.811 9.52973C102.093 9.42132 102.323 8.90332 102.323 8.37903C102.323 7.46439 103.765 5.60921 104.476 5.60921C104.664 5.60921 105.004 4.86329 105.233 3.95198C105.685 2.15452 106.943 1.16921 108.787 1.16921C110.048 1.16921 111.912 3.02254 111.912 4.2761C111.912 4.9421 112.225 5.3824 112.974 5.7709C114.03 6.31887 114.494 7.02039 114.494 8.0686C114.494 8.92145 118.169 12.3628 118.41 11.7349C118.673 11.0471 117.662 9.55119 116.52 8.93773C115.968 8.64173 115.6 8.11892 115.6 7.63163C115.6 6.64891 114.276 4.86921 113.545 4.86921C113.229 4.86921 113.019 4.4981 113.019 3.93866C113.019 3.4029 112.505 2.44608 111.808 1.6824C109.358 -0.998987 105.38 -0.150577 104.178 3.30966C103.88 4.16843 103.339 4.96578 102.976 5.08122C102.254 5.31099 101.233 7.03001 101.189 8.08821C101.174 8.45451 100.668 7.67196 100.063 6.34921C97.321 0.345223 94.6958 -1.32126 91.8833 1.15626ZM116.117 18.1522C115.792 18.5389 114.937 19.4961 114.217 20.2797C112.754 21.87 112.569 23.2738 113.567 25.2092C114.044 26.1353 115.762 27.4392 116.504 27.4392C116.616 27.4392 116.707 26.2737 116.707 24.8492C116.707 22.7935 116.821 22.2592 117.26 22.2592C117.605 22.2592 117.813 22.6089 117.813 23.1872C117.813 24.0156 117.891 24.067 118.534 23.6637C119.699 22.9341 119.872 23.6589 118.801 24.7808C117.812 25.8164 117.457 27.4392 118.219 27.4392C118.442 27.4392 119.176 26.8861 119.849 26.2104C122.153 23.8998 121.897 20.0259 119.326 18.2939C117.8 17.265 116.895 17.225 116.117 18.1522ZM102.516 21.0793C102.41 21.1855 102.323 21.5529 102.323 21.8951C102.323 22.8338 100.446 25.4468 99.0065 26.5124C98.3057 27.0311 97.1056 27.6246 96.3396 27.8314L94.947 28.2077V32.0786V35.9492H101.401H107.855V28.3964V20.8436L106.756 21.2598C105.962 21.5603 105.247 21.5662 104.183 21.2813C103.372 21.0641 102.622 20.9731 102.516 21.0793ZM108.962 28.399V35.9492H112.834H116.707L116.694 32.3417L116.68 28.7342L115.126 27.9942C113.264 27.1073 112.086 25.4479 111.757 23.2519C111.542 21.8089 111.378 21.5925 110.239 21.2417L108.962 20.8484V28.399Z" fill="#309C54"/>
</g>
<g clip-path="url(#clip1_4627_20713)">
<path fill-rule="evenodd" clip-rule="evenodd" d="M167.15 406.088C164.26 407.515 163.754 407.938 163.629 409.032C163.542 409.792 163.802 410.661 164.27 411.18C164.875 411.848 164.935 412.174 164.529 412.58C163.84 413.27 163.855 413.83 164.562 413.828C164.872 413.827 167.922 412.726 171.34 411.381L177.556 408.937L185.515 412.097C189.893 413.835 193.728 415.467 194.037 415.723C194.347 415.98 194.6 416.57 194.6 417.034C194.6 418.146 195.363 418.12 195.72 416.997C196.31 415.138 195.219 414.434 186.273 410.909L177.477 407.443L174.558 408.611C171.176 409.966 170.75 410.021 170.75 409.104C170.75 408.733 170.948 408.429 171.191 408.429C171.802 408.429 172.244 406.443 171.885 405.312C171.492 404.072 171.101 404.136 167.15 406.088ZM167.712 407.288C165.358 408.384 164.37 409.693 166.362 409.077C168.167 408.519 170.75 407.073 170.75 406.62C170.75 405.976 170.334 406.068 167.712 407.288ZM167.712 410.042C166.346 410.64 165.714 411.579 166.679 411.579C167.617 411.579 169.4 410.5 169.4 409.932C169.4 409.601 169.349 409.346 169.287 409.366C169.226 409.386 168.517 409.691 167.712 410.042ZM173 413.009C163.392 416.943 161.314 417.624 160.728 417.027C160.289 416.578 160.449 416.242 161.507 415.391C162.24 414.801 162.705 414.185 162.541 414.02C161.948 413.427 159.909 414.328 159.421 415.399C158.75 416.871 159.944 418.779 161.535 418.779H162.65V427.554V436.329H160.85C158.681 436.329 158.484 435.53 160.386 434.447C161.934 433.566 162.53 431.786 161.807 430.2C161.528 429.588 161.3 428.521 161.3 427.828C161.3 425.41 158.237 424.143 156.645 425.902C156.235 426.355 155.9 427.356 155.9 428.126C155.9 428.896 155.697 429.651 155.45 429.804C154.491 430.397 154.986 432.785 156.35 434.149C157.926 435.725 158.051 436.329 156.8 436.329C156.3 436.329 155.794 437.066 155.794 437.441C155.794 438.032 158.6 437.176 177.5 437.679C196.4 437.176 199.1 437.767 199.1 437.176C199.1 436.757 198.675 436.329 197.975 436.329C197.275 436.329 196.85 436.074 196.85 435.654C196.85 435.283 197.143 434.979 197.502 434.979C198.467 434.979 200.45 432.151 200.45 430.775C200.45 430.058 200.225 429.624 199.887 429.692C199.544 429.761 199.267 429.192 199.177 428.229C198.992 426.248 197.961 425.079 196.4 425.079C194.885 425.079 193.878 426.191 193.548 428.229C193.407 429.096 193.159 430.461 192.996 431.264C192.741 432.513 192.9 432.912 194.099 434.032C195.912 435.725 195.869 436.329 193.937 436.329H192.374L192.25 429.729C192.159 424.94 191.971 423.077 191.562 422.941C191.129 422.797 191 424.312 191 429.542V436.329H184.25H177.5V430.759C177.5 426.532 177.348 425.064 176.87 424.666C176.466 424.332 174.806 424.19 172.257 424.274L168.275 424.404L168.149 430.367L168.024 436.329H166.002H163.982L164.103 427.217L164.225 418.104L170.862 415.428L177.5 412.752L184.137 415.428L190.775 418.104L190.916 419.82C191.078 421.779 192.041 421.894 192.267 419.982C192.369 419.123 192.669 418.779 193.317 418.779C195.369 418.779 193.557 417.645 187.833 415.346C184.501 414.008 180.762 412.541 179.525 412.086L177.275 411.258L173 413.009ZM173.9 417.204C173.9 417.748 174.6 417.879 177.5 417.879C180.4 417.879 181.1 417.748 181.1 417.204C181.1 416.661 180.4 416.529 177.5 416.529C174.6 416.529 173.9 416.661 173.9 417.204ZM179.6 424.48C179.225 424.854 179.204 430.155 179.573 431.118C179.795 431.696 180.629 431.829 184.02 431.829C188.752 431.829 188.732 431.847 188.744 427.704C188.754 424.192 188.737 424.179 184.052 424.179C181.768 424.179 179.765 424.314 179.6 424.48ZM169.4 430.929V436.329H172.55H175.7V430.929V425.529H172.55H169.4V430.929ZM180.733 426.317C180.823 426.792 181.372 427.161 182.117 427.247C183.109 427.361 183.35 427.207 183.35 426.459C183.35 425.721 183.065 425.529 181.967 425.529C180.893 425.529 180.617 425.705 180.733 426.317ZM184.7 426.429C184.7 427.09 185 427.329 185.825 427.329C186.65 427.329 186.95 427.09 186.95 426.429C186.95 425.769 186.65 425.529 185.825 425.529C185 425.529 184.7 425.769 184.7 426.429ZM157.569 426.71C157.394 426.886 157.25 427.664 157.25 428.44C157.25 429.215 157.022 430.078 156.743 430.357C156.457 430.643 156.362 431.367 156.526 432.022C156.839 433.265 157.7 433.62 157.7 432.504C157.7 432.133 158.004 431.829 158.375 431.829C158.746 431.829 159.05 432.228 159.05 432.715C159.05 433.32 159.266 433.519 159.729 433.341C160.601 433.006 161.089 431.085 160.487 430.359C160.232 430.052 159.956 429.093 159.874 428.228C159.762 427.048 159.495 426.622 158.807 426.523C158.301 426.451 157.745 426.535 157.569 426.71ZM195.369 426.71C195.194 426.886 195.05 427.617 195.05 428.334C195.05 429.052 194.836 430.038 194.575 430.526C194.065 431.478 194.389 433.179 195.08 433.179C195.311 433.179 195.5 432.876 195.5 432.504C195.5 432.133 195.804 431.829 196.175 431.829C196.546 431.829 196.85 432.228 196.85 432.715C196.85 433.32 197.066 433.519 197.529 433.341C198.401 433.006 198.889 431.085 198.287 430.359C198.032 430.052 197.756 429.093 197.674 428.228C197.562 427.048 197.295 426.622 196.607 426.523C196.101 426.451 195.545 426.535 195.369 426.71ZM180.65 429.579C180.65 430.28 180.95 430.479 182 430.479C183.05 430.479 183.35 430.28 183.35 429.579C183.35 428.879 183.05 428.679 182 428.679C180.95 428.679 180.65 428.879 180.65 429.579ZM184.7 429.579C184.7 430.24 185 430.479 185.825 430.479C186.65 430.479 186.95 430.24 186.95 429.579C186.95 428.919 186.65 428.679 185.825 428.679C185 428.679 184.7 428.919 184.7 429.579ZM155.104 431.379C155.104 432.246 155.197 432.6 155.31 432.167C155.423 431.734 155.423 431.025 155.31 430.592C155.197 430.159 155.104 430.513 155.104 431.379ZM173.651 430.519C173.187 431.269 174.23 432.13 174.851 431.509C175.37 430.989 175.045 430.029 174.35 430.029C174.132 430.029 173.817 430.249 173.651 430.519Z" fill="#309C54"/>
</g>
<defs>
<clipPath id="clip0_4627_20713">
<rect width="36.881" height="37" fill="white" transform="translate(85.7267)"/>
</clipPath>
<clipPath id="clip1_4627_20713">
<rect width="45" height="45" fill="white" transform="translate(155 398)"/>
</clipPath>
</defs>
</svg>
