<svg width="26" height="26" viewBox="0 0 26 26" fill="none" xmlns="http://www.w3.org/2000/svg">
<circle cx="13" cy="13" r="12.5" stroke="white"/>
<g clip-path="url(#clip0_4720_3792)">
<path fill-rule="evenodd" clip-rule="evenodd" d="M19.9507 8.27778C19.9853 8.0675 19.9629 7.85178 19.8859 7.65309C19.8088 7.4544 19.6799 7.28001 19.5125 7.14809C19.3451 7.01617 19.1454 6.93155 18.9343 6.90304C18.7231 6.87454 18.5081 6.90319 18.3117 6.98601L4.72672 12.706C3.77974 13.1048 3.73128 14.4744 4.72672 14.8876C5.7124 15.2986 6.71245 15.6744 7.72495 16.0141C8.65286 16.3207 9.66499 16.6044 10.4761 16.6846C10.6978 16.9499 10.9766 17.205 11.261 17.4393C11.6956 17.7968 12.2183 18.1646 12.7586 18.5174C13.8406 19.2244 15.041 19.9005 15.8497 20.3406C16.8166 20.865 17.9741 20.2612 18.1473 19.207L19.9507 8.27778ZM6.24967 13.788L18.2648 8.72982L16.5822 18.9305C15.7886 18.4991 14.6454 17.8532 13.6269 17.1875C13.1575 16.8861 12.7043 16.5602 12.2692 16.2111C12.1529 16.1161 12.04 16.017 11.9307 15.914L15.0775 12.768C15.2266 12.619 15.3104 12.4169 15.3105 12.2062C15.3105 11.9954 15.2269 11.7933 15.0779 11.6442C14.929 11.4952 14.7269 11.4114 14.5161 11.4113C14.3054 11.4112 14.1033 11.4949 13.9542 11.6438L10.5087 15.0893C9.92556 15.0147 9.11364 14.7986 8.22227 14.5046C7.55867 14.2836 6.90037 14.0446 6.24967 13.788Z" fill="white"/>
</g>
<defs>
<clipPath id="clip0_4720_3792">
<rect width="19.0667" height="19.0667" fill="white" transform="translate(2.60001 3.46667)"/>
</clipPath>
</defs>
</svg>
