<svg width="80" height="80" viewBox="0 0 80 80" fill="none" xmlns="http://www.w3.org/2000/svg">
<g id="Traced/trees_2997051 1" clip-path="url(#clip0_3666_4114)">
<path id="Vector" fill-rule="evenodd" clip-rule="evenodd" d="M13.3545 2.49996C10.5665 4.94716 5.60008 13.364 5.60008 15.64C5.60008 18.308 7.20888 16.7448 10.0737 11.2944C13.1953 5.35276 15.9537 2.52796 18.6321 2.52796C25.3081 2.52796 34.9449 26.2656 34.2729 41.0568C34.0329 46.3432 33.6601 47.6704 31.5969 50.588C28.7545 54.6072 26.1465 56.6616 22.6001 57.6744L20.0001 58.416V51.4216C20.0001 44.6944 20.0921 44.3392 22.4001 42.128C26.0057 38.6736 25.1145 35.7472 21.4633 39.052C20.0753 40.308 20.0001 40.2464 20.0001 37.852C20.0001 36.1416 19.6129 35.328 18.8001 35.328C17.8529 35.328 17.6001 36.4544 17.6001 40.6672V46.0072L15.7489 44.2672C13.9841 42.6096 12.0001 41.9552 12.0001 43.0312C12.0001 43.308 13.2785 44.9488 14.8401 46.6776C17.4329 49.5472 17.6593 50.184 17.4401 53.9744C17.2297 57.6232 17.0057 58.0952 15.6001 57.8576C10.0329 56.9184 4.81928 51.7208 3.10728 45.4048C2.02968 41.4312 2.66088 33.8504 4.72808 25.9264C5.65928 22.356 5.94408 19.94 5.46728 19.6464C4.29848 18.9232 3.93688 19.5856 2.27928 25.492C-0.0799186 33.8984 -0.498318 42.2136 1.18328 47.2768C3.04808 52.892 7.92088 57.8968 13.4001 59.8256L17.6001 61.3032V69.516V77.728L9 78C-0.5 78 8.1664e-05 77.5 8.1664e-05 78.9352C8.1664e-05 79.5 4.60889 79.1776 40.0001 78.9944C74.9769 78.8144 79 78.9944 80.6113 78.528C81.3252 78.3213 79.8965 77.8592 75.2409 77.8592H69.6001L69.6377 69.9936L69.6745 62.128L72.9873 60.5C77.6481 58.2104 80.2457 53.2464 79.7953 47.4952C79.4241 42.7688 77.7257 39.94 73.5265 37.0552C71.9089 35.9432 70.9025 34.6424 71.0521 33.8552C72.0145 28.7872 70.5257 27.2576 68.9289 31.6736C68.3449 33.288 66.8097 35.1328 65.2473 36.0992C63.7729 37.0104 62.3433 38.6448 62.0705 39.732C61.0561 43.7744 54.9673 45.3224 51.4761 42.4256C49.3809 40.6864 50.2097 36.7904 53.3609 33.5632C55.3841 31.492 56.0625 30.2704 55.5025 29.7104C54.9425 29.1504 54.2177 29.4032 53.2169 30.5088C50.9737 32.988 50.4001 32.4896 50.4001 28.0616C50.4001 23.4296 48.5833 22.7864 48.1441 27.2624C47.9001 29.752 47.8185 29.8112 46.4033 28.5312C45.5873 27.792 44.2745 27.312 43.4865 27.464C42.2809 27.696 42.5249 28.2616 45.0265 31.0304C47.5441 33.8176 48.0001 34.8824 48.0001 37.9792C48.0001 41.956 46.1313 44.128 42.7105 44.128C39.2865 44.128 37.6689 41.7312 36.7833 35.3432C36.3265 32.0512 35.4641 27.4848 34.8665 25.1944C33.9425 21.656 33.9457 20.9664 34.8897 20.6048C35.5001 20.3704 36.0001 19.2504 36.0001 18.1168C36.0001 16.1392 39.1273 12.128 40.6689 12.128C41.0769 12.128 41.8161 10.5152 42.3121 8.54476C43.2913 4.65836 46.0209 2.52796 50.0217 2.52796C52.7569 2.52796 56.8001 6.53516 56.8001 9.24556C56.8001 10.6856 57.4785 11.6376 59.1033 12.4776C61.3937 13.6624 62.4001 15.1792 62.4001 17.4456C62.4001 19.2896 70.3729 26.7304 70.8937 25.3728C71.4641 23.8856 69.2721 20.6512 66.7945 19.3248C65.5985 18.6848 64.8001 17.5544 64.8001 16.5008C64.8001 14.376 61.9281 10.528 60.3417 10.528C59.6553 10.528 59.2001 9.72556 59.2001 8.51596C59.2001 7.35756 58.0857 5.28876 56.5729 3.63756C51.2593 -2.16004 42.6305 -0.32564 40.0241 7.15596C39.3769 9.01276 38.2033 10.7368 37.4153 10.9864C35.8497 11.4832 33.6353 15.2 33.5409 17.488C33.5081 18.28 32.4089 16.588 31.0985 13.728C25.1497 0.746361 19.4553 -2.85684 13.3545 2.49996ZM65.9201 39.248C65.2161 40.084 63.3617 42.1536 61.7985 43.848C58.6265 47.2864 58.2249 50.3216 60.3889 54.5064C61.4241 56.5088 65.1497 59.328 66.7601 59.328C67.0025 59.328 67.2001 56.808 67.2001 53.728C67.2001 49.2832 67.4481 48.128 68.4001 48.128C69.1481 48.128 69.6001 48.884 69.6001 50.1344C69.6001 51.9256 69.7681 52.0368 71.1641 51.1648C73.6905 49.5872 74.0657 51.1544 71.7417 53.58C69.5969 55.8192 68.8265 59.328 70.4801 59.328C70.9641 59.328 72.5561 58.132 74.0169 56.6712C79.0129 51.6752 78.4577 43.2992 72.8817 39.5544C69.5705 37.3296 67.6081 37.2432 65.9201 39.248ZM36.4177 45.5768C36.1881 45.8064 36.0001 46.6008 36.0001 47.3408C36.0001 49.3704 31.9281 55.02 28.8057 57.324C27.2857 58.4456 24.6825 59.7288 23.0209 60.176L20.0001 60.9896V69.3592V77.728H34.0001H48.0001V61.3976V45.0672L45.6161 45.9672C43.8937 46.6168 42.3433 46.6296 40.0337 46.0136C38.2745 45.544 36.6473 45.3472 36.4177 45.5768ZM50.4001 61.4032V77.728H58.8001H67.2001L67.1713 69.928L67.1425 62.128L63.7721 60.528C59.7329 58.6104 57.1761 55.0224 56.4641 50.2744C55.9961 47.1544 55.6409 46.6864 53.1697 45.928L50.4001 45.0776V61.4032Z" fill="#309C54"/>
</g>
<defs>
<clipPath id="clip0_3666_4114">
<rect width="80" height="80" fill="white"/>
</clipPath>
</defs>
</svg>
