<svg xmlns="http://www.w3.org/2000/svg" width="40" height="40" viewBox="0 0 40 40" fill="none">
<path d="M13.2747 10.3367C12.965 10.2916 12.6491 10.3539 12.3797 10.5133H12.3564C11.7314 10.88 11.1681 11.3417 10.6881 11.885C10.2881 12.3467 10.0714 12.8133 10.0147 13.2633C9.98142 13.53 10.0047 13.8 10.0831 14.055L10.1131 14.0717C10.5631 15.3933 11.1497 16.665 11.8664 17.8617C12.7905 19.5425 13.9277 21.097 15.2497 22.4867L15.2897 22.5433L15.3531 22.59L15.3914 22.635L15.4381 22.675C16.8326 24.0011 18.3908 25.1436 20.0747 26.075C21.9997 27.1233 23.1681 27.6183 23.8697 27.825V27.835C24.0747 27.8983 24.2614 27.9267 24.4497 27.9267C25.0473 27.8825 25.6129 27.6396 26.0564 27.2367C26.5981 26.7567 27.0564 26.1917 27.4131 25.5633V25.5517C27.7481 24.9183 27.6347 24.3217 27.1514 23.9167C26.1806 23.0684 25.1308 22.315 24.0164 21.6667C23.2697 21.2617 22.5114 21.5067 22.2047 21.9167L21.5497 22.7433C21.2131 23.1533 20.6031 23.0967 20.6031 23.0967L20.5864 23.1067C16.0347 21.945 14.8197 17.3367 14.8197 17.3367C14.8197 17.3367 14.7631 16.71 15.1847 16.39L16.0047 15.73C16.3981 15.41 16.6714 14.6533 16.2497 13.9067C15.6058 12.7913 14.8538 11.7418 14.0047 10.7733C13.8196 10.5454 13.5599 10.3902 13.2714 10.335L13.2747 10.3367ZM20.9664 8.33334C20.7454 8.33334 20.5334 8.42113 20.3772 8.57741C20.2209 8.73369 20.1331 8.94566 20.1331 9.16667C20.1331 9.38768 20.2209 9.59964 20.3772 9.75592C20.5334 9.91221 20.7454 10 20.9664 10C23.0731 10 24.8231 10.6883 26.2081 12.0083C26.9197 12.73 27.4747 13.585 27.8381 14.5217C28.2031 15.46 28.3697 16.4617 28.3264 17.465C28.3171 17.686 28.396 17.9017 28.5457 18.0645C28.6955 18.2274 28.9037 18.3241 29.1247 18.3333C29.3458 18.3426 29.5614 18.2637 29.7243 18.114C29.8871 17.9643 29.9838 17.756 29.9931 17.535C30.0448 16.3008 29.8399 15.0693 29.3914 13.9183C28.941 12.7619 28.258 11.7102 27.3847 10.8283L27.3681 10.8117C25.6497 9.17 23.4764 8.33334 20.9664 8.33334Z" fill="#9747FF"/>
<path d="M20.9085 11.0733C20.6875 11.0733 20.4756 11.1611 20.3193 11.3174C20.163 11.4737 20.0752 11.6857 20.0752 11.9067C20.0752 12.1277 20.163 12.3396 20.3193 12.4959C20.4756 12.6522 20.6875 12.74 20.9085 12.74H20.9369C22.4569 12.8483 23.5635 13.355 24.3385 14.1867C25.1335 15.0433 25.5452 16.1083 25.5135 17.425C25.5084 17.646 25.5914 17.86 25.7441 18.0199C25.8967 18.1797 26.1067 18.2724 26.3277 18.2775C26.5487 18.2826 26.7627 18.1997 26.9226 18.047C27.0824 17.8943 27.1751 17.6844 27.1802 17.4633C27.2202 15.735 26.6635 14.2433 25.5602 13.0533V13.05C24.4319 11.84 22.8835 11.2 21.0202 11.075L20.9919 11.0717L20.9085 11.0733Z" fill="#9747FF"/>
<path d="M20.8763 13.865C20.7648 13.8552 20.6524 13.8679 20.5459 13.9024C20.4394 13.937 20.341 13.9926 20.2565 14.0661C20.172 14.1395 20.1031 14.2292 20.054 14.3298C20.005 14.4305 19.9767 14.5399 19.9709 14.6517C19.965 14.7636 19.9818 14.8754 20.0201 14.9806C20.0585 15.0858 20.1176 15.1821 20.1941 15.2639C20.2705 15.3458 20.3626 15.4113 20.4649 15.4568C20.5673 15.5022 20.6777 15.5265 20.7896 15.5283C21.4863 15.565 21.9313 15.775 22.2113 16.0567C22.493 16.34 22.703 16.795 22.7413 17.5067C22.7434 17.6185 22.768 17.7288 22.8136 17.8309C22.8592 17.933 22.9249 18.025 23.0067 18.1012C23.0886 18.1774 23.185 18.2363 23.2901 18.2745C23.3952 18.3127 23.507 18.3293 23.6187 18.3233C23.7304 18.3174 23.8397 18.289 23.9402 18.24C24.0407 18.1909 24.1303 18.122 24.2037 18.0376C24.277 17.9531 24.3326 17.8548 24.3671 17.7484C24.4017 17.642 24.4144 17.5298 24.4046 17.4183C24.3513 16.4183 24.038 15.535 23.3963 14.885C22.7513 14.235 21.873 13.9183 20.8763 13.865Z" fill="#9747FF"/>
<path fill-rule="evenodd" clip-rule="evenodd" d="M11.778 3.97333C17.0815 2.78784 22.5812 2.78784 27.8847 3.97333L28.4497 4.09833C30 4.44492 31.4239 5.21455 32.5631 6.3217C33.7024 7.42886 34.5123 8.8302 34.903 10.37C36.2492 15.6748 36.2492 21.2318 34.903 26.5367C34.5123 28.0765 33.7024 29.4778 32.5631 30.585C31.4239 31.6921 30 32.4617 28.4497 32.8083L27.883 32.9333C24.5614 33.6761 21.153 33.956 17.7547 33.765L13.333 37.7217C13.1663 37.8709 12.9626 37.9727 12.7432 38.0164C12.5237 38.06 12.2966 38.044 12.0854 37.9699C11.8743 37.8959 11.6869 37.7665 11.5428 37.5953C11.3988 37.4241 11.3033 37.2174 11.2663 36.9967L10.5347 32.6267C9.13165 32.1901 7.86403 31.401 6.85297 30.3348C5.8419 29.2686 5.12118 27.9609 4.75968 26.5367C3.41344 21.2319 3.41344 15.6748 4.75968 10.37C5.15038 8.8302 5.96035 7.42886 7.09957 6.3217C8.2388 5.21455 9.66269 4.44492 11.213 4.09833L11.778 3.97333ZM27.3397 6.41167C22.3951 5.30634 17.2676 5.30634 12.323 6.41167L11.7563 6.53833C10.6575 6.78443 9.64846 7.33026 8.84114 8.11522C8.03382 8.90018 7.45987 9.89354 7.18302 10.985C5.93921 15.8862 5.93921 21.0205 7.18302 25.9217C7.46 27.0133 8.0342 28.0068 8.84184 28.7918C9.64947 29.5768 10.6589 30.1225 11.758 30.3683L11.908 30.4017C12.1507 30.4559 12.3716 30.5813 12.5426 30.7618C12.7136 30.9424 12.8269 31.1698 12.868 31.415L13.358 34.345L16.478 31.5533C16.6026 31.4415 16.7484 31.3559 16.9067 31.3015C17.065 31.2471 17.2327 31.225 17.3997 31.2367C20.7315 31.473 24.0799 31.2232 27.3397 30.495L27.9047 30.3683C29.0038 30.1225 30.0132 29.5768 30.8209 28.7918C31.6285 28.0068 32.2027 27.0133 32.4797 25.9217C33.723 21.0217 33.723 15.8867 32.4797 10.985C32.2027 9.89333 31.6285 8.89982 30.8209 8.11484C30.0132 7.32986 29.0038 6.78415 27.9047 6.53833L27.3397 6.41167Z" fill="#9747FF"/>
</svg>