<svg width="38" height="41" viewBox="0 0 38 41" fill="none" xmlns="http://www.w3.org/2000/svg">
<g clip-path="url(#clip0_7754_3859)">
<path fill-rule="evenodd" clip-rule="evenodd" d="M16.7482 40.0896V29.3468C16.7482 29.3468 14.3705 28.4695 8.7733 25.4165C8.7733 25.4165 2.05331 22.1373 1.86133 15.9837V0.524414L13.0264 7.33703C13.0264 7.33703 15.1754 8.30698 18.0774 11.2673C18.0774 11.2673 19.493 12.4509 20.4699 16.7697L20.7359 18.8659C20.7359 18.8659 34.1467 10.6951 35.889 9.69524V22.7963C35.889 22.7963 35.6371 26.6701 33.2306 29.3468C33.2306 29.3468 32.0853 30.9083 29.5088 32.753C29.5088 32.753 17.403 40.6185 16.7482 40.0896ZM5.58203 7.33691L5.84781 14.4114C5.84781 14.4114 6.99648 21.2146 13.8228 23.5822C13.8228 23.5822 16.4475 25.7021 16.7471 27.7745V18.6035C16.7471 18.6035 16.1716 15.2486 13.0253 12.315C10.7624 10.3595 8.26227 8.68741 5.58203 7.33691ZM30.3197 26.4644C28.2866 29.3922 20.4707 33.5393 20.4707 33.5393L20.7365 26.4644C21.0482 23.1575 24.1924 21.2242 24.1924 21.2242C26.908 19.3399 32.1673 16.5078 32.1673 16.5078H32.341C32.3144 16.6179 32.2806 17.3774 32.237 18.3598C32.1523 20.2679 32.0302 23.0173 31.8503 23.4859C31.269 25.0001 30.3197 26.4644 30.3197 26.4644Z" fill="#01B671"/>
<path fill-rule="evenodd" clip-rule="evenodd" d="M27.4894 19.1071L26.0746 15.7236C26.0746 15.7236 21.4631 18.2336 20.7363 18.8659V26.6702C20.7363 26.6702 21.5138 23.713 22.6384 22.4906C24.0767 21.2698 25.917 20.1553 27.4894 19.1071Z" fill="url(#paint0_linear_7754_3859)"/>
<path fill-rule="evenodd" clip-rule="evenodd" d="M16.7763 29.4566V27.4663C16.7763 27.4663 16 25 13.3401 23.0876C13.3401 23.0876 9.09537 20.8983 7.47835 18.709L5.86133 23.2867C5.86133 23.2867 5.86133 23.8837 11.4362 26.8766C11.4362 26.8766 15.0867 28.871 16.7763 29.4566Z" fill="url(#paint1_linear_7754_3859)"/>
</g>
<defs>
<linearGradient id="paint0_linear_7754_3859" x1="20.8192" y1="22.2916" x2="27.3995" y2="16.4189" gradientUnits="userSpaceOnUse">
<stop stop-color="#07876B"/>
<stop offset="0.640625" stop-color="#01B671"/>
<stop offset="1" stop-color="#01B671"/>
</linearGradient>
<linearGradient id="paint1_linear_7754_3859" x1="11.2837" y1="29.4291" x2="11.2837" y2="19.6695" gradientUnits="userSpaceOnUse">
<stop stop-color="#07876B"/>
<stop offset="0.596" stop-color="#01B671"/>
<stop offset="1" stop-color="#01B671"/>
</linearGradient>
<clipPath id="clip0_7754_3859">
<rect width="38" height="41" fill="white"/>
</clipPath>
</defs>
</svg>
