<svg width="36" height="35" viewBox="0 0 36 35" fill="none" xmlns="http://www.w3.org/2000/svg">
<g id="4635002_bank_building_corporation_financial_icon 2" clip-path="url(#clip0_7675_4844)">
<g id="Camada 2">
<g id="Camada 1">
<path id="Vector" d="M34.759 30.0999H33.4408V27.5182C33.4408 27.2927 33.355 27.0764 33.2022 26.917C33.0494 26.7575 32.8422 26.6679 32.6262 26.6679H30.9376V10.8221H34.7739C34.9378 10.8196 35.0962 10.7603 35.2244 10.6537C35.3526 10.5471 35.4433 10.3991 35.4823 10.2329C35.5212 10.0667 35.5063 9.89174 35.4397 9.73538C35.3732 9.57903 35.2588 9.45014 35.1145 9.36891L18.3477 0.0932891C18.2406 0.0337395 18.121 0.00259399 17.9996 0.00259399C17.8782 0.00259399 17.7587 0.0337395 17.6516 0.0932891L0.899541 9.38437C0.76231 9.46891 0.654866 9.5974 0.593169 9.75075C0.531472 9.90411 0.518812 10.0741 0.55707 10.2356C0.595328 10.3971 0.682462 10.5413 0.805532 10.647C0.928601 10.7526 1.08104 10.8141 1.24021 10.8221H5.07644V26.6679H3.37309C3.15704 26.6679 2.94983 26.7575 2.79705 26.917C2.64428 27.0764 2.55845 27.2927 2.55845 27.5182V30.0999H1.24021C1.1391 30.0997 1.03902 30.1211 0.946148 30.1629C0.853271 30.2046 0.769563 30.2657 0.700179 30.3425C0.630795 30.4192 0.577207 30.51 0.542715 30.6092C0.508223 30.7084 0.493559 30.8139 0.499625 30.9193V34.2739C0.499625 34.4789 0.577651 34.6756 0.716537 34.8205C0.855424 34.9655 1.04379 35.0469 1.24021 35.0469H34.759C34.9555 35.0469 35.1438 34.9655 35.2827 34.8205C35.4216 34.6756 35.4996 34.4789 35.4996 34.2739V30.9193C35.5057 30.8139 35.491 30.7084 35.4565 30.6092C35.422 30.51 35.3685 30.4192 35.2991 30.3425C35.2297 30.2657 35.146 30.2046 35.0531 30.1629C34.9602 30.1211 34.8602 30.0997 34.759 30.0999ZM29.4417 26.6834H28.2715V10.8221H29.4417V26.6834ZM12.1416 10.8221V26.6679H9.17927V10.8221H12.1416ZM13.6228 10.8221H14.7929V26.6679H13.6228V10.8221ZM16.2741 10.8221H19.7548V26.6679H16.2741V10.8221ZM21.236 10.8221H22.4061V26.6679H21.236V10.8221ZM23.8873 10.8221H26.8496V26.6679H23.8873V10.8221ZM17.9626 1.63923L31.7967 9.27615H4.21736L17.9626 1.63923ZM6.5576 10.8221H7.72773V26.6679H6.5576V10.8221ZM4.18773 28.3685H31.8115V30.0226H4.18773V28.3685ZM34.0185 33.4546H1.98079V31.6458H3.04723C3.15475 31.6688 3.26558 31.6688 3.37309 31.6458H32.6262C32.7337 31.6688 32.8445 31.6688 32.952 31.6458H34.0185V33.4546Z" fill="#309C54"/>
<path id="Vector_2" d="M18.0076 8.16252C18.4411 8.16252 18.8649 8.02833 19.2254 7.77693C19.5859 7.52552 19.8669 7.16818 20.0328 6.75011C20.1987 6.33203 20.2421 5.872 20.1576 5.42817C20.073 4.98434 19.8642 4.57666 19.5576 4.25668C19.2511 3.9367 18.8605 3.71879 18.4352 3.63051C18.01 3.54223 17.5692 3.58754 17.1687 3.76071C16.7681 3.93388 16.4257 4.22714 16.1849 4.6034C15.944 4.97966 15.8154 5.42201 15.8154 5.87453C15.8154 6.175 15.8721 6.47252 15.9823 6.75011C16.0925 7.0277 16.2539 7.27993 16.4575 7.49239C16.661 7.70484 16.9027 7.87338 17.1687 7.98836C17.4346 8.10334 17.7197 8.16252 18.0076 8.16252ZM18.0076 5.07065C18.1482 5.07065 18.2856 5.11417 18.4025 5.19571C18.5195 5.27724 18.6106 5.39314 18.6644 5.52873C18.7182 5.66432 18.7323 5.81352 18.7049 5.95746C18.6774 6.10141 18.6097 6.23363 18.5103 6.33741C18.4109 6.44118 18.2842 6.51186 18.1463 6.54049C18.0083 6.56912 17.8654 6.55443 17.7355 6.49826C17.6056 6.4421 17.4945 6.34699 17.4164 6.22496C17.3383 6.10293 17.2966 5.95946 17.2966 5.8127C17.3115 5.6268 17.3929 5.45358 17.5247 5.32753C17.6564 5.20147 17.8288 5.13184 18.0076 5.13249V5.07065Z" fill="#309C54"/>
</g>
</g>
</g>
<defs>
<clipPath id="clip0_7675_4844">
<rect width="35" height="35" fill="white" transform="translate(0.5)"/>
</clipPath>
</defs>
</svg>
