<svg width="40" height="39" viewBox="0 0 40 39" fill="none" xmlns="http://www.w3.org/2000/svg">
<g id="9204005_mothers_children_war_ukraine_icon 1">
<g id="Group">
<path id="Vector" d="M26.7031 23.4609C25.0243 23.4609 23.6562 22.0929 23.6562 20.4141C23.6562 18.7352 25.0243 17.3672 26.7031 17.3672C28.382 17.3672 29.75 18.7352 29.75 20.4141C29.75 22.0929 28.382 23.4609 26.7031 23.4609ZM26.7031 19.1953C26.0298 19.1953 25.4844 19.7407 25.4844 20.4141C25.4844 21.0874 26.0298 21.6328 26.7031 21.6328C27.3765 21.6328 27.9219 21.0874 27.9219 20.4141C27.9219 19.7407 27.3765 19.1953 26.7031 19.1953Z" fill="#309C54"/>
</g>
<g id="Group_2">
<path id="Vector_2" d="M13.9062 8.22656C11.7216 8.22656 9.94531 6.45023 9.94531 4.26562C9.94531 2.08102 11.7216 0.304688 13.9062 0.304688C16.0909 0.304688 17.8672 2.08102 17.8672 4.26562C17.8672 6.45023 16.0909 8.22656 13.9062 8.22656ZM13.9062 2.13281C12.7302 2.13281 11.7734 3.08953 11.7734 4.26562C11.7734 5.44172 12.7302 6.39844 13.9062 6.39844C15.0823 6.39844 16.0391 5.44172 16.0391 4.26562C16.0391 3.08953 15.0823 2.13281 13.9062 2.13281Z" fill="#309C54"/>
</g>
<path id="Vector_3" d="M32.7816 32.7417L32.2454 29.7954C31.764 27.1537 29.6495 25.158 26.9834 24.8351C23.7202 24.439 21.2035 21.8796 20.8653 18.6134L20.5332 15.4355C20.1767 12.0199 17.3218 9.44531 13.888 9.44531C10.2012 9.44531 7.20312 12.4434 7.20312 16.1302V23.4609C7.20312 24.6523 7.96789 25.6699 9.03125 26.0477V28.9453C9.03125 29.9538 9.85086 30.7734 10.8594 30.7734H10.9264L11.4718 37.8513C11.5084 38.3297 11.9075 38.6953 12.3828 38.6953C12.4072 38.6953 12.4316 38.6953 12.4529 38.6923C12.9556 38.6527 13.3334 38.2139 13.2938 37.7112L12.7606 30.7734H15.0519L14.5187 37.7112C14.4791 38.2139 14.8569 38.6527 15.3596 38.6923C15.384 38.6953 15.4084 38.6953 15.4297 38.6953C15.902 38.6953 16.3041 38.3297 16.3407 37.8513L16.8861 30.7734H16.9531C17.9616 30.7734 18.7813 29.9538 18.7813 28.9453V23.7656C18.7813 23.2598 18.373 22.8516 17.8672 22.8516C17.3614 22.8516 16.9531 23.2598 16.9531 23.7656V28.9453H10.8594V25.2891C10.8594 24.7833 10.4511 24.375 9.94531 24.375C9.44258 24.375 9.03125 23.9637 9.03125 23.4609V16.1302C9.03125 13.452 11.2098 11.2734 13.888 11.2734C16.3834 11.2734 18.4583 13.1442 18.7173 15.6244L19.0494 18.8023C19.3236 21.4287 20.713 23.6864 22.7452 25.1123V29.8594C22.7452 30.9623 23.1992 31.9617 23.9305 32.6808L24.2717 37.8391C24.3022 38.3236 24.7044 38.6953 25.1827 38.6953C25.201 38.6953 25.2223 38.6953 25.2406 38.6923C25.7434 38.6618 26.1273 38.2261 26.0968 37.7234L25.847 33.7228C26.1242 33.7838 26.4106 33.8203 26.7092 33.8203H27.5654L27.3216 37.7234C27.2912 38.2261 27.672 38.6618 28.1778 38.6923C28.1961 38.6923 28.2174 38.6953 28.2357 38.6953C28.7141 38.6953 29.1163 38.3236 29.1467 37.8391L29.4514 32.9641C29.4666 32.7113 29.3783 32.4645 29.2046 32.2816C29.0309 32.0988 28.7841 31.9922 28.5313 31.9922H26.7031C25.527 31.9922 24.5703 31.0355 24.5703 29.8594V26.0995C25.262 26.3707 25.9963 26.5596 26.7641 26.651C28.6318 26.8765 30.1126 28.272 30.4477 30.1214L30.984 33.0677C31.0632 33.5095 31.4502 33.8173 31.8828 33.8173C31.9377 33.8173 31.9925 33.8112 32.0473 33.802C32.544 33.7167 32.873 33.2384 32.7816 32.7417Z" fill="#309C54"/>
</g>
</svg>
