<svg width="40" height="39" viewBox="0 0 40 39" fill="none" xmlns="http://www.w3.org/2000/svg">
<g id="Group">
<path id="Vector" d="M20.0001 12.7822C15.9402 12.7822 12.6184 16.1411 12.6184 20.2463C12.6184 24.3516 15.9402 27.7105 20.0001 27.7105C24.06 27.7105 27.3818 24.3516 27.3818 20.2463C27.3818 16.1411 24.06 12.7822 20.0001 12.7822ZM20.0001 25.2224C17.2935 25.2224 15.079 22.9832 15.079 20.2463C15.079 17.5095 17.2935 15.2703 20.0001 15.2703C22.7067 15.2703 24.9212 17.5095 24.9212 20.2463C24.9212 22.9832 22.7067 25.2224 20.0001 25.2224Z" fill="#309C54"/>
<path id="Vector_2" d="M20 31.0693C15.4172 31.0693 11.0189 32.9976 7.88171 36.3875L7.05127 37.2894L8.83518 39L9.66562 38.098C12.3722 35.1746 16.0323 33.5574 20 33.5574C23.9677 33.5574 27.6278 35.1746 30.3344 38.098L31.1648 39L32.9487 37.2894L32.1183 36.3875C28.9811 33.0287 24.5828 31.0693 20 31.0693Z" fill="#309C54"/>
<path id="Vector_3" d="M30.1499 14.6172V17.1052C33.0411 17.1052 35.7169 18.287 37.7161 20.433L39.5001 18.7224C37.101 16.11 33.687 14.6172 30.1499 14.6172Z" fill="#309C54"/>
<path id="Vector_4" d="M36.0244 5.94019C36.0244 2.67464 33.3792 0 30.1498 0C26.9203 0 24.2751 2.67464 24.2751 5.94019C24.2751 9.20574 26.9203 11.8804 30.1498 11.8804C33.3792 11.8804 36.0244 9.20574 36.0244 5.94019ZM26.7357 5.94019C26.7357 4.04306 28.2736 2.48804 30.1498 2.48804C32.0259 2.48804 33.5638 4.04306 33.5638 5.94019C33.5638 7.83732 32.0259 9.39234 30.1498 9.39234C28.2736 9.39234 26.7357 7.83732 26.7357 5.94019Z" fill="#309C54"/>
<path id="Vector_5" d="M9.85016 14.6172C6.31309 14.6172 2.89905 16.11 0.5 18.7225L2.28391 20.433C4.25237 18.2871 6.95899 17.1053 9.85016 17.1053V14.6172Z" fill="#309C54"/>
<path id="Vector_6" d="M15.7248 5.94019C15.7248 2.67464 13.0797 0 9.85019 0C6.6207 0 3.97559 2.67464 3.97559 5.94019C3.97559 9.20574 6.6207 11.8804 9.85019 11.8804C13.0797 11.8804 15.7248 9.20574 15.7248 5.94019ZM9.85019 9.39234C7.97401 9.39234 6.43615 7.83732 6.43615 5.94019C6.43615 4.04306 7.97401 2.48804 9.85019 2.48804C11.7264 2.48804 13.2642 4.04306 13.2642 5.94019C13.2642 7.83732 11.7264 9.39234 9.85019 9.39234Z" fill="#309C54"/>
</g>
</svg>
