<svg width="36" height="35" viewBox="0 0 36 35" fill="none" xmlns="http://www.w3.org/2000/svg">
<g id="9044491_education_icon 1" clip-path="url(#clip0_7675_6459)">
<path id="Vector" d="M28.9375 32.8125H26.75V29.5312C26.7483 28.0814 26.1716 26.6914 25.1464 25.6661C24.1211 24.6409 22.7311 24.0642 21.2812 24.0625H14.7188C13.2689 24.0642 11.8789 24.6409 10.8536 25.6661C9.82843 26.6914 9.25171 28.0814 9.25 29.5312V32.8125H7.0625V29.5312C7.06487 27.5014 7.87227 25.5554 9.30759 24.1201C10.7429 22.6848 12.6889 21.8774 14.7188 21.875H21.2812C23.3111 21.8774 25.2571 22.6848 26.6924 24.1201C28.1277 25.5554 28.9351 27.5014 28.9375 29.5312V32.8125Z" fill="#309C54"/>
<path id="Vector_2" d="M5.96875 6.5625C5.67867 6.5625 5.40047 6.67773 5.19535 6.88285C4.99023 7.08797 4.875 7.36617 4.875 7.65625V17.5H7.0625V7.65625C7.0625 7.36617 6.94727 7.08797 6.74215 6.88285C6.53703 6.67773 6.25883 6.5625 5.96875 6.5625Z" fill="#309C54"/>
<path id="Vector_3" d="M4.875 2.1875V4.375H10.3438V12.0312C10.3438 14.0618 11.1504 16.0092 12.5862 17.445C14.022 18.8809 15.9694 19.6875 18 19.6875C20.0306 19.6875 21.978 18.8809 23.4138 17.445C24.8496 16.0092 25.6562 14.0618 25.6562 12.0312V4.375H31.125V2.1875H4.875ZM12.5312 4.375H23.4688V7.65625H12.5312V4.375ZM18 17.5C16.5496 17.5 15.1586 16.9238 14.133 15.8982C13.1074 14.8727 12.5312 13.4817 12.5312 12.0312V9.84375H23.4688V12.0312C23.4688 13.4817 22.8926 14.8727 21.867 15.8982C20.8414 16.9238 19.4504 17.5 18 17.5Z" fill="#309C54"/>
</g>
<defs>
<clipPath id="clip0_7675_6459">
<rect width="35" height="35" fill="white" transform="translate(0.5)"/>
</clipPath>
</defs>
</svg>
