<svg width="40" height="39" viewBox="0 0 40 39" fill="none" xmlns="http://www.w3.org/2000/svg">
<g id="streamline:money-cash-coins-stack-accounting-billing-payment-stack-cash-coins-currency-money-finance" clip-path="url(#clip0_7675_6826)">
<g id="Group">
<path id="Vector" d="M25.5714 20.8929C32.4946 20.8929 38.1071 18.3984 38.1071 15.3214C38.1071 12.2444 32.4946 9.75 25.5714 9.75C18.6481 9.75 13.0356 12.2444 13.0356 15.3214C13.0356 18.3984 18.6481 20.8929 25.5714 20.8929Z" stroke="#309C54" stroke-width="2" stroke-linecap="round" stroke-linejoin="round"/>
<path id="Vector_2" d="M13.0356 15.3214V32.0357C13.0356 35.1 18.6071 37.6071 25.5714 37.6071C32.5356 37.6071 38.1071 35.1 38.1071 32.0357V15.3214" stroke="#309C54" stroke-width="2" stroke-linecap="round" stroke-linejoin="round"/>
<path id="Vector_3" d="M38.1071 23.6786C38.1071 26.7429 32.5357 29.25 25.5714 29.25C18.6071 29.25 13.0357 26.7429 13.0357 23.6786M25.2928 4.17857C22.0377 2.16972 18.2487 1.19818 14.4285 1.39286C7.49211 1.39286 1.89282 3.9 1.89282 6.96429C1.89282 8.60786 3.50854 10.0843 6.07139 11.1429" stroke="#309C54" stroke-width="2" stroke-linecap="round" stroke-linejoin="round"/>
<path id="Vector_4" d="M6.07139 27.8571C3.50854 26.7986 1.89282 25.3221 1.89282 23.6786V6.96428" stroke="#309C54" stroke-width="2" stroke-linecap="round" stroke-linejoin="round"/>
<path id="Vector_5" d="M6.07139 19.5C3.50854 18.4414 1.89282 16.965 1.89282 15.3214" stroke="#309C54" stroke-width="2" stroke-linecap="round" stroke-linejoin="round"/>
</g>
</g>
<defs>
<clipPath id="clip0_7675_6826">
<rect width="39" height="39" fill="white" transform="translate(0.5)"/>
</clipPath>
</defs>
</svg>
