<svg width="40" height="39" viewBox="0 0 40 39" fill="none" xmlns="http://www.w3.org/2000/svg">
<g id="octicon:law-24">
<path id="Vector" d="M21.2187 4.46875V7.3125H24.428C24.9984 7.3125 25.5558 7.48475 26.027 7.80487L28.7847 9.68012C28.8513 9.72562 28.9309 9.75 29.0122 9.75H35.6779C36.0012 9.75 36.3111 9.8784 36.5397 10.107C36.7683 10.3355 36.8967 10.6455 36.8967 10.9688C36.8967 11.292 36.7683 11.602 36.5397 11.8305C36.3111 12.0591 36.0012 12.1875 35.6779 12.1875H33.1137L38.5834 24.6675C38.6931 24.917 38.716 25.1961 38.6482 25.4601C38.5804 25.7241 38.426 25.9577 38.2097 26.1235C38.0472 26.2437 37.8798 26.3559 37.7059 26.4583C37.2937 26.7042 36.8648 26.9209 36.4222 27.1066C34.9523 27.7213 33.3744 28.0357 31.7812 28.0312C30.1886 28.0363 28.6112 27.7224 27.1418 27.1082C26.6989 26.9224 26.2699 26.7052 25.858 26.4583C25.6856 26.3585 25.519 26.2489 25.3592 26.13L25.351 26.1235C25.1347 25.9577 24.9803 25.7241 24.9125 25.4601C24.8448 25.1961 24.8676 24.917 24.9773 24.6675L30.4503 12.1875H29.0105C28.4402 12.1875 27.8828 12.0153 27.4115 11.6951L24.6539 9.81988C24.5869 9.77403 24.5076 9.74965 24.4264 9.75H21.2187V33.3125H28.51C28.8333 33.3125 29.1433 33.4409 29.3718 33.6695C29.6004 33.898 29.7288 34.208 29.7288 34.5312C29.7288 34.8545 29.6004 35.1645 29.3718 35.393C29.1433 35.6216 28.8333 35.75 28.51 35.75H11.4898C11.1666 35.75 10.8566 35.6216 10.628 35.393C10.3994 35.1645 10.271 34.8545 10.271 34.5312C10.271 34.208 10.3994 33.898 10.628 33.6695C10.8566 33.4409 11.1666 33.3125 11.4898 33.3125H18.7812V9.75H15.5718C15.4907 9.74996 15.4114 9.7743 15.3443 9.81988L12.5883 11.6951C12.117 12.0153 11.5597 12.1875 10.9893 12.1875H9.54954L15.0225 24.6675C15.1285 24.91 15.1526 25.1803 15.0914 25.4377C15.0301 25.6951 14.8867 25.9255 14.6829 26.0943C14.5529 26.1999 14.4229 26.299 14.1792 26.4566C13.7682 26.7227 13.338 26.9579 12.8922 27.1603C11.4245 27.827 9.83069 28.1706 8.21867 28.1677C6.60659 28.1711 5.01266 27.8275 3.54517 27.1603C3.09932 26.9579 2.66913 26.7227 2.25817 26.4566C2.08438 26.3461 1.91676 26.2263 1.75604 26.0975C1.55386 25.9269 1.41164 25.696 1.35023 25.4386C1.28882 25.1813 1.31144 24.911 1.41479 24.6675L6.88617 12.1875H4.32354C4.00031 12.1875 3.69032 12.0591 3.46176 11.8305C3.2332 11.602 3.10479 11.292 3.10479 10.9688C3.10479 10.6455 3.2332 10.3355 3.46176 10.107C3.69032 9.8784 4.00031 9.75 4.32354 9.75H10.9893C11.0705 9.75 11.1502 9.72562 11.2184 9.68012L13.9728 7.80487C14.444 7.48312 15.003 7.3125 15.5734 7.3125H18.7812V4.46875C18.7812 4.14552 18.9096 3.83552 19.1381 3.60696C19.3667 3.3784 19.6767 3.25 19.9999 3.25C20.3232 3.25 20.6331 3.3784 20.8617 3.60696C21.0903 3.83552 21.2187 4.14552 21.2187 4.46875ZM4.06354 24.6968C5.34248 25.3776 6.76979 25.7321 8.21867 25.7286C9.66755 25.7321 11.0949 25.3776 12.3738 24.6968L8.21867 15.223L4.06354 24.6968ZM27.6423 24.6577C27.7755 24.7227 27.925 24.7926 28.0892 24.8625C28.9504 25.2249 30.2098 25.5938 31.7812 25.5938C33.2137 25.5978 34.6286 25.2778 35.9201 24.6577L31.7812 15.2214L27.6423 24.6577Z" fill="#309C54"/>
</g>
</svg>
