<svg width="36" height="35" viewBox="0 0 36 35" fill="none" xmlns="http://www.w3.org/2000/svg">
<g id="bi:house">
<path id="Vector" d="M19.5465 3.28125C19.1363 2.87116 18.58 2.64078 17.9999 2.64078C17.4199 2.64078 16.8636 2.87116 16.4534 3.28125L1.91304 17.8194C1.81135 17.9211 1.73068 18.0418 1.67565 18.1747C1.62061 18.3075 1.59229 18.4499 1.59229 18.5937C1.59229 18.7376 1.62061 18.88 1.67565 19.0128C1.73068 19.1457 1.81135 19.2664 1.91304 19.3681C2.11842 19.5735 2.39697 19.6889 2.68742 19.6889C2.83123 19.6889 2.97364 19.6606 3.10651 19.6055C3.23937 19.5505 3.3601 19.4698 3.46179 19.3681L4.87492 17.9528V29.5312C4.87492 30.4015 5.22062 31.2361 5.83597 31.8514C6.45133 32.4668 7.28592 32.8125 8.15617 32.8125H27.8437C28.7139 32.8125 29.5485 32.4668 30.1639 31.8514C30.7792 31.2361 31.1249 30.4015 31.1249 29.5312V17.9528L32.538 19.3681C32.7434 19.5735 33.022 19.6889 33.3124 19.6889C33.6029 19.6889 33.8814 19.5735 34.0868 19.3681C34.2922 19.1627 34.4075 18.8842 34.4075 18.5937C34.4075 18.3033 34.2922 18.0247 34.0868 17.8194L28.9374 12.6722V5.46875C28.9374 5.17867 28.8222 4.90047 28.6171 4.69535C28.4119 4.49023 28.1337 4.375 27.8437 4.375H25.6562C25.3661 4.375 25.0879 4.49023 24.8828 4.69535C24.6776 4.90047 24.5624 5.17867 24.5624 5.46875V8.29719L19.5465 3.28125ZM28.9374 15.7653V29.5312C28.9374 29.8213 28.8222 30.0995 28.6171 30.3046C28.4119 30.5098 28.1337 30.625 27.8437 30.625H8.15617C7.86609 30.625 7.58789 30.5098 7.38277 30.3046C7.17765 30.0995 7.06242 29.8213 7.06242 29.5312V15.7653L17.9999 4.82781L28.9374 15.7653Z" fill="#309C54"/>
</g>
</svg>
