<svg width="36" height="35" viewBox="0 0 36 35" fill="none" xmlns="http://www.w3.org/2000/svg">
<g id="Icons" clip-path="url(#clip0_7675_6940)">
<path id="Vector" d="M10.3438 32.8125C14.5722 32.8125 18 29.3847 18 25.1562C18 20.9278 14.5722 17.5 10.3438 17.5C6.11532 17.5 2.6875 20.9278 2.6875 25.1562C2.6875 29.3847 6.11532 32.8125 10.3438 32.8125Z" stroke="#309C54" stroke-width="2" stroke-miterlimit="10" stroke-linecap="round" stroke-linejoin="round"/>
<path id="Vector_2" d="M30.0312 32.8125C32.4475 32.8125 34.4062 30.8537 34.4062 28.4375C34.4062 26.0213 32.4475 24.0625 30.0312 24.0625C27.615 24.0625 25.6562 26.0213 25.6562 28.4375C25.6562 30.8537 27.615 32.8125 30.0312 32.8125Z" stroke="#309C54" stroke-width="2" stroke-miterlimit="10" stroke-linecap="round" stroke-linejoin="round"/>
<path id="Vector_3" d="M21.2812 5.46875H8.15625" stroke="#309C54" stroke-width="2" stroke-miterlimit="10" stroke-linecap="round" stroke-linejoin="round"/>
<path id="Vector_4" d="M2.57812 17.5C4.54687 15.4219 7.28125 14.2188 10.3437 14.2188C16.3594 14.2188 21.2812 19.1406 21.2812 25.1562C21.2812 25.4844 21.2812 25.9219 21.2812 26.25" stroke="#309C54" stroke-width="2" stroke-miterlimit="10" stroke-linecap="round" stroke-linejoin="round"/>
<path id="Vector_5" d="M33.8594 26.25H34.4062V14.2188H21.5L18 5.46875H8.15625L6.1875 15.0938" stroke="#309C54" stroke-width="2" stroke-miterlimit="10" stroke-linecap="round" stroke-linejoin="round"/>
<path id="Vector_6" d="M21.2812 26.25H24.5625H26.2031" stroke="#309C54" stroke-width="2" stroke-miterlimit="10" stroke-linecap="round" stroke-linejoin="round"/>
<path id="Vector_7" d="M10.3438 27.3438C11.5519 27.3438 12.5312 26.3644 12.5312 25.1562C12.5312 23.9481 11.5519 22.9688 10.3438 22.9688C9.13563 22.9688 8.15625 23.9481 8.15625 25.1562C8.15625 26.3644 9.13563 27.3438 10.3438 27.3438Z" stroke="#309C54" stroke-width="2" stroke-miterlimit="10" stroke-linecap="round" stroke-linejoin="round"/>
<path id="Vector_8" d="M25.6562 8.75C26.8594 8.75 27.8438 9.73437 27.8438 10.9375V17.5" stroke="#309C54" stroke-width="2" stroke-miterlimit="10" stroke-linecap="round" stroke-linejoin="round"/>
</g>
<defs>
<clipPath id="clip0_7675_6940">
<rect width="35" height="35" fill="white" transform="translate(0.5)"/>
</clipPath>
</defs>
</svg>
