<svg width="36" height="35" viewBox="0 0 36 35" fill="none" xmlns="http://www.w3.org/2000/svg">
<g id="carbon:document">
<path id="Vector" d="M28.6094 10.1719L20.9531 2.51562C20.7344 2.29687 20.5156 2.1875 20.1875 2.1875H9.25C8.04688 2.1875 7.0625 3.17188 7.0625 4.375V30.625C7.0625 31.8281 8.04688 32.8125 9.25 32.8125H26.75C27.9531 32.8125 28.9375 31.8281 28.9375 30.625V10.9375C28.9375 10.6094 28.8281 10.3906 28.6094 10.1719ZM20.1875 4.8125L26.3125 10.9375H20.1875V4.8125ZM26.75 30.625H9.25V4.375H18V10.9375C18 12.1406 18.9844 13.125 20.1875 13.125H26.75V30.625Z" fill="#309C54"/>
<path id="Vector_2" d="M11.4375 24.0625H24.5625V26.25H11.4375V24.0625ZM11.4375 17.5H24.5625V19.6875H11.4375V17.5Z" fill="#309C54"/>
</g>
</svg>
