<svg width="36" height="35" viewBox="0 0 36 35" fill="none" xmlns="http://www.w3.org/2000/svg">
<g id="Icons">
<path id="Vector" d="M33.7705 13.44L32.5659 5.61167C32.5129 5.26745 32.3386 4.95354 32.0743 4.72672C31.81 4.49989 31.4733 4.37513 31.125 4.375C23.1523 4.375 19.0661 0.460834 19.0311 0.427292C18.7578 0.155676 18.3882 0.0032196 18.003 0.0032196C17.6177 0.0032196 17.2481 0.155676 16.9748 0.427292C16.934 0.460834 12.8478 4.375 4.87505 4.375C4.52678 4.37513 4.19006 4.49989 3.92579 4.72672C3.66152 4.95354 3.48715 5.26745 3.43421 5.61167L2.22963 13.44C1.68934 16.9961 2.25488 20.6323 3.84969 23.8564C5.44449 27.0804 7.99151 29.7365 11.1459 31.465L17.3 34.8192C17.5143 34.9361 17.7545 34.9974 17.9986 34.9974C18.2427 34.9974 18.4829 34.9361 18.6971 34.8192L24.8513 31.465C28.0062 29.7369 30.5538 27.081 32.1492 23.8569C33.7445 20.6329 34.3105 16.9964 33.7705 13.44ZM23.4571 28.8983L18 31.8806L12.543 28.9042C9.91319 27.4646 7.78935 25.2516 6.45903 22.5649C5.12872 19.8781 4.6562 16.8475 5.10546 13.8833L6.1263 7.26104C10.3842 7.1657 14.5174 5.80572 18 3.35417C21.4813 5.80541 25.6129 7.16587 29.8694 7.2625L30.8903 13.8833C31.3399 16.847 30.868 19.8773 29.5385 22.564C28.209 25.2507 26.0861 27.4639 23.4571 28.9042V28.8983Z" fill="#309C54"/>
<path id="Vector_2" d="M22.8023 12.094L15.0834 19.8129L13.1977 17.9273C13.0632 17.788 12.9023 17.6769 12.7244 17.6005C12.5464 17.524 12.3551 17.4838 12.1614 17.4821C11.9678 17.4804 11.7758 17.5173 11.5965 17.5907C11.4173 17.664 11.2545 17.7723 11.1176 17.9092C10.9806 18.0461 10.8724 18.209 10.799 18.3882C10.7257 18.5674 10.6888 18.7594 10.6905 18.9531C10.6922 19.1467 10.7324 19.3381 10.8088 19.516C10.8853 19.6939 10.9964 19.8548 11.1356 19.9894L14.0523 22.906C14.3258 23.1794 14.6967 23.333 15.0834 23.333C15.47 23.333 15.8409 23.1794 16.1144 22.906L24.8644 14.156C25.13 13.881 25.277 13.5126 25.2737 13.1302C25.2704 12.7479 25.117 12.3821 24.8466 12.1117C24.5762 11.8413 24.2105 11.688 23.8281 11.6846C23.4457 11.6813 23.0774 11.8283 22.8023 12.094Z" fill="#309C54"/>
</g>
</svg>
